<svg width="168" height="122" viewBox="0 0 168 122" fill="none" xmlns="http://www.w3.org/2000/svg">
<path d="M146 0.899902H21.5999C9.79991 0.899902 0.199951 10.4999 0.199951 22.2999V100.6C0.199951 112.4 9.79991 122 21.5999 122H146C157.8 122 167.4 112.4 167.4 100.6V22.2999C167.4 10.4999 157.8 0.899902 146 0.899902ZM86.9999 65.9999C85.1999 67.5999 82.3999 67.5999 80.5999 65.9999L18.2999 11.3999C19.3999 11.0999 20.4999 10.8999 21.5999 10.8999H146C147.1 10.8999 148.2 11.0999 149.3 11.3999L86.9999 65.9999ZM67.4 68.4999L73.5999 73.9999C76.3999 76.3999 79.9999 77.7999 83.7999 77.7999C87.5999 77.7999 91.1999 76.4999 93.9999 73.9999L100.2 68.4999L149.3 111.5C148.2 111.8 147.1 112 146 112H21.5999C20.4999 112 19.3999 111.8 18.2999 111.5L67.4 68.4999ZM59.4 61.4999L10.7999 104.1C10.4999 103 10.2999 101.9 10.2999 100.7V22.2999C10.2999 21.0999 10.4999 19.9999 10.7999 18.8999L59.4 61.4999ZM158.4 22.2999H157.4V100.6C157.4 101.8 157.2 102.9 156.9 104L108.3 61.3999L156.9 18.7999C157.3 19.8999 157.4 20.9999 157.4 22.1999H158.4V22.2999Z" fill="#EC6628"/>
</svg>
