<svg width="233" height="177" viewBox="0 0 233 177" fill="none" xmlns="http://www.w3.org/2000/svg">
<path d="M30.3999 55.3C28.7999 55.3 27.1999 55.9 25.8999 57.1C23.3999 59.5 23.3999 63.5 25.8999 65.9C27.0999 67.1 28.6999 67.7 30.3999 67.7C32.0999 67.7 33.5999 67.1 34.8999 65.9C37.3999 63.5 37.3999 59.5 34.8999 57.1C33.6999 55.9 32.0999 55.3 30.3999 55.3Z" fill="#EC6628"/>
<path d="M60.9 13.5L76.2 28.5L27.4 76.5L12.1 61.5L60.9 13.5ZM60.9 2.19995L0.5 61.6L27.3 88L87.7 28.6L60.9 2.19995Z" fill="#EC6628"/>
<path d="M57.9999 114.5C56.7999 114.5 55.4998 113.9 54.6998 112.8L32.2999 82.0999C30.9999 80.2999 31.3998 77.8 33.1998 76.4C34.9998 75.1 37.4999 75.5 38.8999 77.3L61.2999 108C62.5999 109.8 62.1999 112.3 60.3999 113.7C59.6999 114.2 58.7999 114.5 57.9999 114.5Z" fill="#EC6628"/>
<path d="M139.9 163C135.7 163 131.3 161.5 128.8 159.1L119.9 149.6C118.4 148 118.5 145.4 120.1 143.9C121.7 142.4 124.3 142.4 125.8 144.1L134.6 153.4C136.2 155 141.7 155.5 143.1 154.1C144.5 152.7 144.7 151.7 144.7 150.2C144.7 148.7 144.3 147.8 143.7 147.2L133.3 137C131.7 135.4 131.7 132.9 133.3 131.3C134.9 129.7 137.4 129.7 139 131.3L149.4 141.5C151.6 143.7 152.8 146.9 152.8 150.3C152.8 153.7 151.3 157.5 148.8 159.9C146.6 162 143.3 163 140 163H139.9Z" fill="#EC6628"/>
<path d="M155.2 152.2C151.1 152.2 147 150.8 144.7 148.5C143.1 146.9 143.1 144.4 144.7 142.8C146.3 141.2 148.8 141.2 150.4 142.8C152 144.4 157.3 144.7 158.8 143.2C159.7 142.4 160.2 140.8 160.2 139.2C160.2 137.6 159.9 136.9 159.3 136.3C157.7 134.7 157.7 132.2 159.3 130.6C160.9 129 163.4 129 165 130.6C166.6 132.2 168.3 135.8 168.3 139.3C168.3 142.8 166.9 146.7 164.5 149.1C162.1 151.5 158.7 152.4 155.3 152.4V152.2H155.2Z" fill="#EC6628"/>
<path d="M168.5 139.2C164.8 139.2 161 137.9 158.5 135.4L145.3 122.2C143.7 120.6 143.7 118.1 145.3 116.5C146.9 114.9 149.4 114.9 151 116.5L164.1 129.7C166.1 131.6 170.5 131.5 172.1 130C172.8 129.3 173.3 127.9 173.3 126.5C173.3 125.1 172.7 123.2 171.8 122.3L116.1 68.6001C114.5 67.0001 114.4 64.5002 116.1 62.9002C117.8 61.3002 120.2 61.3002 121.8 62.9002L177.5 116.7C180 119.2 181.4 122.8 181.4 126.7C181.4 130.6 180.1 133.8 177.8 136C175.5 138.3 172 139.4 168.5 139.4H168.6L168.5 139.2Z" fill="#EC6628"/>
<path d="M104.4 53.1999C104 53.1999 103.6 53.1999 103.2 52.9999L93.2 49.9C92.9 49.9 92.7 49.6999 92.5 49.5999C91.2 48.8999 90.0001 47.9999 88.9001 46.9999L79 37.3C77.4 35.7 77.4 33.1999 79 31.5999C80.6 29.9999 83.1 29.9999 84.7 31.5999L94.6 41.3C95 41.7 95.6 42.0999 96.1 42.4999L105.7 45.4999C107.8 46.1999 109 48.3999 108.4 50.5999C107.8 52.2999 106.3 53.4 104.5 53.4V53.1999H104.4Z" fill="#EC6628"/>
<path d="M122.4 173.5C118.8 173.5 115.3 172.3 112.9 170L108.4 165.6C106.8 164 106.8 161.5 108.4 159.9C110 158.3 112.5 158.3 114.1 159.9L118.6 164.3C120.3 166 124.7 166 126.4 164.3C127.2 163.5 127.7 162.1 127.7 160.5C127.7 158.9 127.2 157.6 126.5 156.8C124.9 155.2 124.9 152.7 126.5 151.1C128.1 149.5 130.6 149.5 132.2 151.1C134.5 153.4 135.9 156.8 135.9 160.5C135.9 164.2 134.5 167.8 132.2 170.1C129.9 172.4 126.1 173.7 122.5 173.7V173.5H122.4Z" fill="#EC6628"/>
<path d="M171.8 11.8L220.6 59.8L205.3 74.8L156.5 26.8L171.8 11.8ZM171.8 0.5L145 26.9L205.4 86.3L232.2 59.9L171.8 0.5Z" fill="#EC6628"/>
<path d="M84.7 72.6C83.7 72.6 82.6001 72.2001 81.8001 71.4001C80.2001 69.8001 80.2001 67.2 81.8001 65.7L104.5 43.4001C108 40.0001 112.8 38.3 117.5 38.6L137.8 40.1C138.5 40.1 139.2 39.9 139.6 39.5L148.7 30.5C150.3 28.9 152.9 28.9 154.4 30.5C156 32.1 156 34.7 154.4 36.2L145.3 45.2C143.2 47.3 140.3 48.4 137.2 48.1L116.9 46.6C114.3 46.3 111.9 47.3 110.1 49L87.4001 71.3001C86.6001 72.1001 85.6 72.5 84.6 72.5H84.7V72.6Z" fill="#EC6628"/>
<path d="M92.9 92.9002C88.6 92.9002 84 90.9002 80.8 87.8002C77.8 84.9002 76 80.7001 76 76.6001C76 72.5001 77.2 70.2002 79.6 67.9002L101.9 45.9002C103.5 44.3002 106.1 44.3002 107.6 45.9002C109.2 47.5002 109.2 50.1001 107.6 51.6001L85.3 73.6001C84.5 74.4001 84.1 75.4002 84.1 76.5002C84.1 78.4002 85 80.5002 86.4 81.9002C88.9 84.3002 93.5 85.7002 95.4 83.8002L118.9 59.7001C120.5 58.1001 123 58.1001 124.6 59.7001C126.2 61.3001 126.2 63.8002 124.6 65.4002L101.1 89.5002C98.8 91.8002 95.8 92.7001 92.7 92.7001L92.9 92.9002Z" fill="#EC6628"/>
<path d="M110.2 149.4L109.2 148.4C107.6 147.1 105.8 146.3 104 145.8C104.5 144.5 104.7 143 104.7 141.6C104.7 138.3 103.4 135.2 101.1 132.9C98.8 130.6 96.7 129.9 94.2 129.5C94.6 128.2 94.8 126.8 94.8 125.5C94.8 122.9 94 120.4 92.5 118.4V118.2L91.5 117.2C87.9 113.7 82.3 113 77.5 115.1C76.9 112.9 75.7 110.8 74.1 109.2C69.2 104.3 61.7 104 57.3 108.3L48.9 116.5C46.9 118.5 45.8 121.2 45.8 124.1C45.8 127 47.2 130.7 49.7 133.2C51.8 135.3 54.5 136.5 57.2 136.9C57 137.9 56.9 138.8 56.9 139.8C56.9 143 58.1 145.9 60.3 148.1C62.5 150.3 65.5 151.4 68.6 151.4C71.7 151.4 69.2 151.4 69.5 151.4V152.1C69.5 155.4 70.8 158.5 73.1 160.7C75.5 163 78.6 164.2 81.8 164.2C85 164.2 82.8 164.2 83.4 164.2C83.7 167.1 85.1 170 87.4 172.3C90.1 174.9 93.5 176.2 96.7 176.2C99.9 176.2 101.9 175.3 103.9 173.4L111.8 165.7C113.7 163.9 114.7 161.3 114.7 158.6C114.7 155.9 113.2 151.9 110.7 149.3L110.3 149.5L110.2 149.4ZM54.3 128.3C53.1 127.1 52.5 125.7 52.5 124.2C52.5 122.7 52.7 122.4 53.5 121.6L61.9 113.4C62.6 112.7 63.6 112.4 64.7 112.4C65.8 112.4 67.7 113 68.9 114.2C70.1 115.4 70.7 116.9 70.7 118.4C70.7 119.9 70.5 120.2 69.7 121L61.3 129.2C59.6 130.8 56.4 130.5 54.3 128.4V128.3ZM64.9 143.2L64.4 143.8L65 143.2C63.9 142.2 63.7 140.8 63.7 139.9C63.7 138 64.6 136 66.1 134.5L77.5 123.3C80.1 120.7 84.1 120.1 86.2 121.9L86.5 122.2C87.6 123.2 87.8 124.6 87.8 125.5C87.8 127.4 86.9 129.4 85.4 130.9L74 142.1C71.2 144.8 67.1 145.3 65 143.3L64.9 143.2ZM77.7 155.8C76.7 154.8 76.2 153.5 76.2 152.1C76.2 150.7 76.8 149.1 78 148L88 138.1C89.2 136.9 90.8 136.3 92.3 136.3C93.8 136.3 95.1 136.8 96.1 137.8C97.1 138.8 97.6 140.1 97.6 141.5C97.6 142.9 97 144.5 95.8 145.6L85.8 155.4C83.5 157.6 79.7999 157.8 77.7 155.7V155.8ZM106.5 160.7L98.6 168.4C97.1 169.8 94 169.3 91.9 167.2L89.4 169.7L91.8 167.2C90.6 166 89.8 164.4 89.8 163C89.8 161.6 89.8 161.5 90.6 160.9L98.5 153.2C99.1 152.7 99.9 152.4 100.7 152.4C102.1 152.4 103.8 153.1 105.1 154.4L105.4 154.7C106.5 155.9 107.1 157.3 107.1 158.7C107.1 160.1 107.1 160.2 106.3 160.8H106.5V160.7Z" fill="#EC6628"/>
<path d="M170.7 119.6C170 119.6 169.2 119.4 168.5 119C166.6 117.8 166 115.3 167.2 113.4L182.1 89.6C182.3 89.3 182.5 89 182.8 88.8L196 76.7C197.6 75.2 200.2 75.3 201.7 76.9C203.2 78.5 203.1 81.1 201.5 82.6L188.7 94.3L174.1 117.6C173.3 118.8 172 119.5 170.7 119.5V119.6Z" fill="#EC6628"/>
</svg>
