<svg width="199" height="223" viewBox="0 0 199 223" fill="none" xmlns="http://www.w3.org/2000/svg">
<path d="M64.4001 153.7C64.2001 155 64.0001 156.4 63.7001 157.8C61.5001 172.7 61.1001 180 63.7001 191.5C64.3001 193.9 64.9001 196.3 65.5001 198.6H8.40009C9.50009 179.5 14.3001 174.9 23.9001 165.9C29.8001 160.4 37.1001 159.1 47.0001 157.3H48.0001L48.7001 157C53.0001 156.2 58.3001 155.3 63.9001 153.7H64.1M72.7001 140.4C72.7001 140.4 63.4001 145.6 63.2001 145.6C63.0001 145.6 62.7001 145.6 62.5001 145.6C56.8001 147.2 51.3 148.2 46.8 149H46.5001C35.6001 150.9 26.3 152.5 18.6 159.8C6.90004 170.8 0.900049 177.4 0.300049 203.3C0.300049 204.2 0.600049 205.1 1.30005 205.6C1.80005 206.1 2.70006 206.5 3.50006 206.5H76.7001C74.9001 201.1 73.2001 195.3 71.8 189.5C69.5 179.6 69.6001 173.3 71.8 158.8C72.8 152.4 73.6001 147.9 75.5001 145C76.6001 143.1 72.8 140.2 72.8 140.2" fill="#EC6628"/>
<path d="M132.7 154.7C134.9 155.6 137.2 156.1 140.5 156.6H141H141.3C145.7 157.4 153 158.8 166.3 162.7C183.9 168 189.4 186.5 189.9 198.1H132.4C133 194.6 133.7 190.9 134 187C134.2 184.9 134.3 183.2 134.5 181.7C135.3 173.8 135.5 169.4 132.7 154.5M127.6 141.2C124.3 141.2 121.2 144.8 121.9 146.5C122.9 148.8 123.9 151.8 124.6 155.6C128.1 174 126.8 175.4 126 186.7C125.5 193.4 123.7 200 123 206.5H194.8C196.4 206.5 197.8 205.3 197.9 203.8C199.3 190.3 193.5 162.8 168.7 155.3C155.3 151.4 147.7 149.9 142.7 149H142.2C136.5 147.9 135.1 147.5 132.1 145C131.7 144.6 130.6 142.9 129.6 141.7C128.9 141.4 128.2 141.2 127.6 141.2Z" fill="#EC6628"/>
<path d="M98.8999 222.6C98.8999 222.6 98.5999 222.6 98.3999 222.3L81.3999 205.4C80.6999 204.7 80.3999 203.2 80.9999 202L94.8999 169.7L85.5999 155.5C85.1999 154.8 85.0999 153.7 85.2999 152.8C85.5999 152.1 85.9999 151.6 86.2999 151.6C86.5999 151.6 86.6999 151.6 87.0999 151.6C89.0999 151.2 94.3999 148.9 99.3999 148.9C104.4 148.9 109.3 151.3 111.2 151.6C111.5 151.6 111.7 151.6 111.9 151.6C112.2 151.6 112.6 152.1 112.9 153C113.2 153.9 112.9 154.9 112.5 155.7L103.4 169.9L117.3 202.1C117.8 203.2 117.6 204.8 116.8 205.6L99.3999 222.8C99.3999 222.5 99.3999 222.8 99.0999 222.8" fill="#EC6628"/>
<path d="M156 65.6C155.3 64.2 154.6 63.7 152.2 61.9C151.4 61.4 150.7 61 150.2 60.4C150.2 59.2 151.8 56.2 152.7 48.4V47.5C153 38 151.9 26.5 146.3 19.4C139.2 10.7 130.1 9.60006 123.5 10.8001C117.4 4.10006 112 0.900037 107.8 0.900037C103.6 0.900037 105.6 0.900037 104.4 0.900037C96.5 0.600037 91.3 0.500061 88.1 3.30006C87.1 3.30006 84.8 3.69999 83.3 3.59999C81 3.59999 63.5 5.10004 56.2 15.9C45.2 32.2 45.8 44.4 47.9 53.2V54C49 58.2 49.5 61.1 49.8 63.5C47.6 63.5 46.5 64 44.9 65.5C43.7 66.6 43 68.1 43 69.7C43 81.8 44.1 96.8001 49.1 99.3001C49.8 99.6001 50.5 100 51.1 100.2C54.4 101.7 56.4 102.6 57.4 104.7C60.7 112.6 73.4 138.4 99.5 138.4C125.6 138.4 135.9 117.4 140.9 106.2L141.6 104.6C142.7 102.3 144.1 101.6 146 100.8C147.6 100 149.8 99 151.2 96.7C156.2 88.4 158.6 70.4 156.1 65.6M144.1 93.3001C143.8 93.7001 143.3 94 141.9 94.7C139.7 95.6 136.5 97.2 134.4 101.6L133.7 103.1C129.1 113.5 121.3 130.6 99.4 130.6C77.5 130.6 68.1 110.6 64.5 102C62.6 97.4 58.6 95.6 55 94.1C54.5 93.8 54 93.7 53.5 93.4C52.3 91.5 50.9 81.8 50.9 71.1C51.4 71.1 52.5 70.7 54 70.7H55.4L60.4 71.2L59.3 66.2C59.3 65.9 59 63.3001 59.3 61.8001L64.5 61V60.7C70.4 56.9 79.4 56.5 86.6 56.5C93.8 56.5 95.5 56.5 100.2 56.9C104 56.9 107.8 57.2001 111.8 57.3001H112.8C126.4 57.3001 134.5 52.4001 137.6 49.8001C137.3 53.6001 137.9 59.2001 141.8 63.8001C141.8 63.8001 141.8 64 141.8 64.1C142.8 65.3 144.3 66.4 146 67.6C146.7 68.1 148 69.1 148.6 69.6C149.3 72.3 148.2 86.4 144.1 93.2" fill="#EC6628"/>
</svg>
