<svg width="211" height="210" viewBox="0 0 211 210" fill="none" xmlns="http://www.w3.org/2000/svg">
<path d="M160.1 88.4999C158.2 85.6999 155 83.7999 151 83.2999C147.7 82.7999 144.4 82.3999 141.1 81.8999C137 81.2999 132.7 80.6999 128.4 80.0999C127.2 80.0999 126.7 79.5999 126.2 78.4999C124.2 74.3999 122.1 70.1998 120.1 66.1998C118.7 63.3998 117.3 60.5999 116 57.7999C113.8 53.3999 110.3 51.0999 105.5 50.8999C100.7 50.8999 97.1 53.2999 95 57.5999C93.7 60.2999 92.4 62.8999 91.1 65.5999C89 69.8999 86.7999 74.1999 84.7999 78.4999C84.2999 79.4999 83.8 79.8999 82.7 79.9999C78.7 80.4999 74.6 81.0998 70.7 81.6998C69.3 81.8998 67.9 82.0999 66.5 82.2999C64.2 82.5999 61.9 82.9999 59.6 83.2999C54.4 84.0999 51.1 86.6999 49.6 90.9999C48.1 95.4999 49.2 99.5998 52.9 103.2L56.4 106.6C60.8 110.8 65.3 115.2 69.7 119.6C70.2 120.1 70.5 121.2 70.4 121.8C69.4 127.9 68.4 134 67.2999 140L66.5 144.8C65.8 149.1 66.6 152.6 69.2 155.3C71.4 157.7 74.2 159 77.2 159C80.2 159 81.2 158.5 83.2999 157.4C90.3999 153.7 97.4 150 104.1 146.4C105.1 145.9 105.6 145.9 106.7 146.4C113.4 150 120.1 153.5 127.5 157.4C129.5 158.4 131.5 158.9 133.5 158.9C136.8 158.9 139.8 157.5 142 154.8C145 151.2 144.7 147.1 144.1 144C143.6 141.1 143.1 138.3 142.6 135.4C141.9 131.1 141.1 126.6 140.3 122.2C140 120.9 140.3 120.2 141.4 119.2L143.1 117.6C147.9 113 152.9 108.2 157.6 103.3C158.8 102.1 160.8 99.6999 161.5 96.7999C162.3 93.6999 161.8 90.7999 160.1 88.2999V88.4999ZM130.4 124.2C131.2 128.1 131.8 132.2 132.5 136.1L132.7 137.1C133.2 140 133.7 143 134.2 145.9C134.3 146.7 134.5 148.1 134.2 148.5C133.9 148.9 133.7 148.9 133.5 148.9C133.1 148.9 132.7 148.9 132.2 148.5C125.9 145.2 118.6 141.4 111.5 137.6C107.4 135.4 103.3 135.4 99.4 137.6C92.5 141.3 85.5 145 78.7 148.5C77.8 149 77.3 149 77.2 149C77.2 149 77 149 76.6 148.5C76.5 148.3 76.2 148.1 76.5 146.6L77.4 141.6C78.4 136 79.5 129.7 80.5 123.5C81.1 119.7 79.7 115.3 77 112.6C72.5 108 67.7 103.4 63.2 98.9999L60.1 95.9999C59.1 94.9999 59.1 94.7998 59.3 94.1998C59.4 93.7998 59.5 93.4999 61.2 93.2999L72.7 91.5999C76.5 90.9999 80.3 90.4999 84 89.9999C87.1 89.5999 91.4 88.0999 93.9 82.8999C96 78.4999 98.2 74.1999 100.3 69.7999L104.1 61.9999C104.5 61.0999 104.7 60.9999 105.5 60.8999C106.2 60.8999 106.4 60.8999 107 62.0999C107.9 63.9999 108.9 65.8999 109.8 67.7999L111.2 70.6998C112.8 73.9998 115 78.2999 117.1 82.7999C119.7 87.9999 123.9 89.5999 127.1 89.9999C131.4 90.5999 135.8 91.1999 139.8 91.7999C143.1 92.2999 146.3 92.7998 149.6 93.1998C151 93.3998 151.6 93.8999 151.8 93.9999V94.3999C151.8 94.3999 151.4 95.2999 150.4 96.2999C145.7 101.1 140.7 105.9 135.9 110.5L134.5 111.9C130.9 115.3 129.6 119.4 130.5 124.1L130.4 124.2Z" fill="#EC6628"/>
<path d="M196.6 95.7C198.4 95.7 200.1 95.7 201.9 95.7C206.4 96.1 210 99.8 210.2 104.2C210.5 109.1 207.5 113.4 202.9 114C198.7 114.5 194.4 114.4 190.2 114C185.7 113.5 182.6 109 182.9 104.4C183.1 99.9 186.8 96.1 191.4 95.8C193.2 95.8 194.9 95.8 196.7 95.8" fill="#EC6628"/>
<path d="M14.3 95.7C16.1 95.7 17.8 95.7 19.6 95.7C24 96.1 27.5 99.8 27.8 104C28.1 108.8 25.3 113.2 20.8 113.8C16.4 114.3 11.8 114.3 7.39997 113.8C2.89997 113.2 -2.37226e-05 108.6 0.499976 104C0.899976 99.7 4.39998 96.1 8.79998 95.7C10.6 95.5 12.5 95.7 14.3 95.7Z" fill="#EC6628"/>
<path d="M167.8 53C162.9 52.8 160.1 51.0999 158.4 47.6999C156.7 44.2999 156.9 40.9 159.3 38C161.7 35.1 164.4 32.4 167.3 30C170.9 27 176.6 27.6 179.7 30.9C183 34.4 183.2 39.7 179.9 43.3C177.6 45.9 175.2 48.4 172.5 50.5C170.9 51.8 168.7 52.3 167.7 52.8" fill="#EC6628"/>
<path d="M114.9 13.8C114.8 15.9 114.8 17.9 114.5 19.9C113.7 24.6 109.7 27.6 104.8 27.4C100.4 27.2 96.6001 23.7999 96.2001 19.1999C95.9001 15.4999 95.9001 11.7999 96.2001 8.19994C96.5001 3.69994 100.4 0.299965 104.9 0.0999647C109.5 -0.100035 113.7 2.99999 114.5 7.49999C114.9 9.59999 114.8 11.8 115 13.9" fill="#EC6628"/>
<path d="M42.7 52.9999C41.6 52.3999 39.3 51.5998 37.5 50.1998C35.1 48.2998 33.1 45.9999 31 43.7999C27.4 39.8999 27.5 34.3999 31 30.7999C34.4 27.2999 40.3 27.0999 44.1 30.5999C46.5 32.7999 48.9 35.0999 51 37.5999C53.6 40.5999 53.9 44.0998 52.2 47.6998C50.5 51.0998 47.6 52.6999 42.6 52.9999" fill="#EC6628"/>
<path d="M38.9 182C33.9 181.8 31.0001 180 29.3001 176.5C27.6001 173 28.1001 169.5 30.6001 166.6C32.8001 164 35.3 161.6 37.9 159.3C41.6 156.1 47.3001 156.4 50.6001 159.8C54.1001 163.3 54.3001 168.8 50.8001 172.6C48.6001 175 46.3001 177.4 43.8001 179.5C42.1001 180.8 39.9 181.4 38.9 182Z" fill="#EC6628"/>
<path d="M114.9 196.4C114.8 198.4 114.8 200.5 114.4 202.5C113.6 207 109.5 210 104.8 209.8C100.3 209.6 96.5001 206.2 96.2001 201.7C95.9001 198 95.9001 194.3 96.2001 190.7C96.5001 186.1 100.5 182.6 105.1 182.5C109.7 182.3 113.8 185.6 114.5 190.1C114.8 192.1 114.8 194.2 114.9 196.4Z" fill="#EC6628"/>
<path d="M171.6 182C170.5 181.5 168.3 180.7 166.6 179.3C164.2 177.4 162.2 175.1 160.1 172.9C156.4 168.9 156.5 163.3 160.1 159.7C163.6 156.3 169.4 156.2 173.2 159.7C175.6 161.9 178 164.2 180.1 166.7C182.6 169.6 183 173.1 181.3 176.6C179.6 180.1 176.7 181.8 171.6 182Z" fill="#EC6628"/>
</svg>
