<svg width="189" height="236" viewBox="0 0 189 236" fill="none" xmlns="http://www.w3.org/2000/svg">
<path d="M150.7 55.3001C148.4 56.7001 147.9 59.2 149.5 62C149.5 62.2 149.8 62.4 149.9 62.6C150 62.8 150.1 63 150.2 63.1C157.7 76.3 160.3 90.5001 158 105.3C156 118.5 150.2 130 140.4 140.5C135 146.3 131.2 153.2 128.8 161.8C127 168.2 127 174.8 127 181.2V184.2C127 186.9 126 189.2 124.2 190.7C122.5 192.1 120.2 192.7 117.6 192.5V135.4C117.6 133 117.2 129.9 114.3 127.6C114.1 127.4 113.9 127.1 113.9 126.8C113 115.7 115.5 106.8 121.6 99.8001C124.3 96.7001 124.5 94.6001 122.4 90.8001C116.2 79.4001 108.9 68.4 100.7 58.2C98.8001 55.9 96.6002 54.7 94.3002 54.7C92.0002 54.7 89.9001 55.9 88.1001 58.1C79.6001 68.4 72.2001 79.5 66.1001 91.1C64.2001 94.6 64.5001 96.9001 67.4001 99.8001C69.7001 102.2 72.9001 106 73.7001 110.5C74.4001 114.5 74.5001 118.7 74.7001 122.7C74.7001 124.2 74.7001 125.6 74.9001 127C74.9001 127 74.7001 127.4 74.6001 127.5C71.6001 129.8 71.2001 133 71.2001 135.5V182.1C71.2001 183.6 71.8001 184.9 72.7001 185.7C73.6001 186.5 74.7001 186.8 76.0001 186.7C78.5001 186.5 80.0001 184.7 80.0001 181.7V150.7H108.5V192.7H69.3002C65.2002 192.7 62.0002 189.3 61.8002 184.7C61.8002 182.9 61.8002 181 61.8002 178.4C62.1002 163.3 57.1001 150.2 46.4001 138.3C32.9001 123.3 27.6002 105.4 30.8002 85.3001C34.3002 63.0001 48.9001 44.6001 69.9001 35.9001C90.9001 27.3001 114.3 30.1 132.5 43.5C134.7 45.1 136.7 47.0001 138.7 48.8001C139.5 49.5001 140.3 50.3 141.1 51C142.8 52.5 144.6 52.8001 146.4 51.8001C148.3 50.8001 149.1 48.9 148.5 47C148.1 45.7 147.3 44.7 146.6 44C121.9 18.9 83.1002 14.7 54.3002 34.2C29.7002 50.8 18.7002 74.5001 21.8002 104.4C23.4002 119.6 30.0001 133.5 41.5001 145.9C45.9001 150.6 49.1001 156.3 51.2001 163.1C53.1001 169.1 53.1001 175.5 53.1001 181.7V182.6C53.1001 192.2 56.8001 197.6 65.7001 200.8V218.9C65.7001 225.8 70.0001 231.8 76.5001 234C77.4001 234.3 78.2001 234.6 79.0001 234.9L79.6001 235.1H79.8002H109.6H109.8C110.3 234.8 110.9 234.6 111.4 234.4C112.7 233.9 114 233.4 115.3 232.7C120.4 229.6 123 224.8 123.1 218.6V201C128.9 199.3 132.8 195.8 134.5 190.8C135.3 188.4 135.5 185.9 135.7 183.4V182.1C136 180.1 136.1 178.1 136.1 176.1C136.3 172.6 136.4 169 137 165.5C138.6 156.4 144.1 149.4 149.2 143.7C170.3 120.3 173.6 84 157.1 57.5C155.4 54.7 153 53.9 150.7 55.2V55.4001V55.3001ZM108.5 134.9V141.6H80.1001V134.9H108.5ZM98.8002 95.1V70.1C99.2002 70.6 99.6001 71.2 100 71.7C101.7 74 103.4 76.5001 105 78.9001C107.9 83.4001 110.7 88.1 113.4 92.7L114 93.8001C114.2 94.1001 114.3 94.5 114.3 94.7C110.2 99.8 107.4 105.5 105.8 112.1H83.9001C83.7001 112.1 83.3002 111.7 83.3002 111.5C81.9002 105.2 79.1001 99.6001 75.0001 94.8001C75.0001 94.6001 74.7001 94.1 74.7001 94C79.3001 85.4 84.4001 77.5 90.1001 70V94.9001C90.1001 95.7001 90.1002 96.5001 90.3002 97.4001C90.9002 99.7001 92.7002 101 94.8002 100.6C96.3002 100.3 97.6001 98.9001 98.5001 97.8001C99.1001 97.1001 99.0001 96.1 99.0001 95.2H98.8002V95.1ZM104.8 121.1V125.8H83.8002V121.1H104.8ZM82.7001 226.4C79.9001 226.4 77.7002 225.5 76.3002 223.8C74.9002 222.2 74.4001 219.9 74.7001 217.2H104.5C105.3 217.2 106.3 217.2 107 216.7C108.3 215.6 109.7 214.3 109.8 212.9C109.8 211.7 109 210.4 107.2 208.9C106.5 208.3 105.4 208.3 104.5 208.3H74.7001V201.6H114.3V218.7C114.3 223.2 111.1 226.3 106.6 226.3H82.7001V226.4Z" fill="#EC6628"/>
<path d="M32.7 40C33.5 40.7 34.4001 41 35.3001 41C36.2001 41 37.4001 40.6 38.3001 39.7C40.1001 37.9 40.2 35.7 38.7 33.9C37.1 32 35.3001 30.3 33.8001 28.8C32.3001 27.3 32.7 28.1 32 27.9C31.7 27.9 31.4 27.7 31 27.5L30.6 28.4L30 27.6C29.8 27.8 29.5 27.9 29.2 28.1C28.4 28.6 27.6 29.1 27.1 30C26.5 31.2 26.5001 33.3 27.3001 34.3C28.7001 36.1 30.4 37.9 32.5 39.8L32.7 40Z" fill="#EC6628"/>
<path d="M153.3 41.0002C154.3 41.0002 155.3 40.6002 156.1 39.9002C157.9 38.3002 159.5 36.5002 160.9 35.0002C161.3 34.5002 161.6 34.0002 161.8 33.3002C161.8 33.0002 162 32.7002 162.2 32.4002L161.3 32.0002L162.1 31.4002C161.9 31.2002 161.7 30.9001 161.5 30.6001C161 29.8001 160.3 28.8002 159.3 28.5002C157.9 28.0002 155.8 28.3001 154.7 29.2001C153 30.4001 151.6 32.0001 150.3 33.6001L150 34.0002C148.4 35.9002 148.5 38.4001 150.3 40.1001C151.2 40.9001 152.3 41.3002 153.3 41.3002V41.0002Z" fill="#EC6628"/>
<path d="M94.3001 15.7C96.7001 15.7 98.3001 14.1 98.5001 11.7V4.69995C98.3001 2.29995 96.7001 0.799951 94.3001 0.699951C91.9001 0.699951 90.2001 2.10002 90.0001 4.40002C89.8001 6.90002 89.8001 9.5 90.0001 12C90.2001 14.2 91.9 15.7 94.2 15.7H94.3001Z" fill="#EC6628"/>
<path d="M37.2001 154.3C37.0001 154.1 36.7001 154 36.6001 153.9L36.0002 154.7L35.8002 153.7C35.5002 153.7 35.2002 153.7 35.0002 153.9C34.5002 153.9 34.0001 154.1 33.6001 154.5C33.2001 154.9 32.7001 155.4 32.2001 155.8C30.5001 157.4 28.8002 159.1 27.3002 161.1C26.4002 162.4 27.5002 165 28.4002 166C29.0002 166.7 29.9002 167.2 30.9002 167.2H31.1001C32.1001 167.2 33.1002 166.8 34.0002 166C35.7002 164.4 37.5002 162.8 38.9002 160.8C39.8002 159.6 39.8002 157.6 39.3002 156.4C38.9002 155.4 38.0002 154.8 37.3002 154.4L37.2001 154.3Z" fill="#EC6628"/>
<path d="M156.3 155.1C155.8 154.6 155.2 154.4 154.5 154.1C154.2 154.1 153.9 153.8 153.5 153.6L153.1 154.5L152.5 153.7C152.2 153.9 151.9 154.1 151.6 154.3C150.8 154.8 149.8 155.5 149.5 156.4C149 157.8 149.3 159.8 150.1 161C151.2 162.6 152.6 163.9 154 165.2L154.5 165.7C155.4 166.6 156.5 167 157.6 167C158.7 167 159.7 166.6 160.5 165.8C162.4 164.1 162.4 161.6 160.7 159.6C159.3 158 157.8 156.5 156.2 155H156.3V155.1Z" fill="#EC6628"/>
<path d="M11.8002 93.2001C9.10019 92.9001 6.50014 92.9001 4.00014 93.2001C1.80014 93.4001 0.400143 95.2001 0.500143 97.7001C0.700143 100 2.10017 101.5 4.40017 101.7H11.3002C13.6002 101.5 15.1001 100 15.2001 97.7001C15.4001 95.3001 13.9001 93.4001 11.7001 93.2001H11.8002Z" fill="#EC6628"/>
<path d="M184.8 93.2001C182.3 92.9001 179.6 92.9001 176.8 93.2001C174.7 93.4001 173.3 95.2001 173.4 97.5001C173.5 99.8001 174.9 101.4 177.2 101.6H184.1C186.4 101.4 187.9 100 188.1 97.7001C188.3 95.2001 187 93.4001 184.8 93.1001V93.2001Z" fill="#EC6628"/>
</svg>
