<?xml version="1.0" encoding="UTF-8"?>
<svg id="Layer_1" xmlns="http://www.w3.org/2000/svg" version="1.1" xmlns:xlink="http://www.w3.org/1999/xlink" viewBox="0 0 1920 1080">
  <!-- Generator: Adobe Illustrator 29.0.1, SVG Export Plug-In . SVG Version: 2.1.0 Build 192)  -->
  <defs>
    <style>
      .st0 {
        fill: url(#linear-gradient3);
      }

      .st0, .st1, .st2, .st3, .st4, .st5, .st6, .st7, .st8, .st9, .st10, .st11, .st12, .st13, .st14, .st15, .st16, .st17, .st18, .st19, .st20, .st21, .st22, .st23, .st24, .st25, .st26, .st27, .st28, .st29, .st30, .st31, .st32, .st33, .st34, .st35, .st36, .st37, .st38, .st39 {
        isolation: isolate;
      }

      .st0, .st9, .st10, .st20, .st33, .st37, .st39 {
        opacity: .1;
      }

      .st1 {
        fill: url(#linear-gradient17);
      }

      .st1, .st3, .st14, .st16, .st18, .st27, .st30 {
        opacity: 0;
      }

      .st2 {
        fill: url(#radial-gradient4);
      }

      .st2, .st8, .st12, .st26, .st28, .st29, .st35 {
        mix-blend-mode: color-dodge;
      }

      .st3 {
        fill: url(#linear-gradient5);
      }

      .st4 {
        fill: url(#linear-gradient16);
      }

      .st4, .st6, .st11, .st21, .st24, .st34, .st36 {
        opacity: .2;
      }

      .st5 {
        fill: url(#linear-gradient18);
      }

      .st5, .st7, .st15, .st17, .st22, .st23, .st38 {
        opacity: .8;
      }

      .st6 {
        fill: url(#linear-gradient24);
      }

      .st40 {
        stroke-width: 1.1px;
      }

      .st40, .st41, .st42, .st43, .st44, .st45, .st46, .st47, .st48, .st49, .st50, .st51, .st52 {
        fill: none;
      }

      .st40, .st41, .st43, .st44, .st45, .st46, .st47, .st48, .st49, .st50, .st51, .st52 {
        stroke: #4d4d4d;
        stroke-miterlimit: 10;
      }

      .st7 {
        fill: url(#linear-gradient10);
      }

      .st41 {
        stroke-width: .6px;
      }

      .st8 {
        fill: url(#radial-gradient5);
      }

      .st9 {
        fill: url(#linear-gradient19);
      }

      .st10 {
        fill: url(#linear-gradient23);
      }

      .st53 {
        clip-path: url(#clippath-1);
      }

      .st11 {
        fill: url(#linear-gradient20);
      }

      .st43 {
        stroke-width: 1.3px;
      }

      .st12 {
        fill: url(#radial-gradient6);
      }

      .st13 {
        font-size: 13.9px;
        letter-spacing: .6em;
      }

      .st13, .st25, .st31, .st32 {
        font-family: FzPoppins-SemiBold, 'Fz Poppins';
        font-weight: 600;
      }

      .st13, .st31 {
        fill: #fff;
      }

      .st14 {
        fill: url(#linear-gradient9);
      }

      .st15 {
        fill: url(#linear-gradient6);
      }

      .st16 {
        fill: url(#linear-gradient1);
      }

      .st17 {
        fill: url(#linear-gradient14);
      }

      .st18 {
        fill: url(#linear-gradient25);
      }

      .st20 {
        fill: url(#linear-gradient11);
      }

      .st44 {
        stroke-width: .7px;
      }

      .st21 {
        fill: url(#linear-gradient8);
      }

      .st22 {
        fill: url(#linear-gradient26);
      }

      .st23 {
        fill: url(#linear-gradient2);
      }

      .st24 {
        fill: url(#linear-gradient);
      }

      .st25 {
        font-size: 15.3px;
        letter-spacing: .6em;
      }

      .st25, .st32, .st54 {
        fill: #ec6629;
      }

      .st55 {
        fill: #070200;
      }

      .st45 {
        stroke-width: .9px;
      }

      .st46 {
        stroke-width: .8px;
      }

      .st26 {
        fill: url(#radial-gradient3);
      }

      .st56 {
        opacity: .9;
      }

      .st47 {
        stroke-width: .5px;
      }

      .st27 {
        fill: url(#linear-gradient13);
      }

      .st48 {
        stroke-width: 1.4px;
      }

      .st28 {
        fill: url(#radial-gradient);
      }

      .st29 {
        fill: url(#radial-gradient1);
      }

      .st30 {
        fill: url(#linear-gradient21);
      }

      .st50 {
        stroke-width: 1.6px;
      }

      .st57 {
        mix-blend-mode: overlay;
      }

      .st31 {
        font-size: 18.8px;
        letter-spacing: .6em;
      }

      .st32 {
        font-size: 11.1px;
        letter-spacing: .6em;
      }

      .st58 {
        clip-path: url(#clippath-2);
      }

      .st33 {
        fill: url(#linear-gradient15);
      }

      .st51 {
        stroke-width: 1.5px;
      }

      .st34 {
        fill: url(#linear-gradient12);
      }

      .st59 {
        opacity: .7;
      }

      .st35 {
        fill: url(#radial-gradient2);
      }

      .st36 {
        fill: url(#linear-gradient4);
      }

      .st37 {
        fill: url(#linear-gradient7);
      }

      .st38 {
        fill: url(#linear-gradient22);
      }

      .st52 {
        stroke-width: 1.2px;
      }

      .st60 {
        clip-path: url(#clippath);
      }

      .st39 {
        fill: url(#linear-gradient27);
      }
    </style>
    <clipPath id="clippath">
      <rect class="st42" width="1920" height="1081"/>
    </clipPath>
    <linearGradient id="linear-gradient" x1="319.3" y1="773.8" x2="381.8" y2="773.8" gradientTransform="translate(0 20)" gradientUnits="userSpaceOnUse">
      <stop offset="0" stop-color="#fff"/>
      <stop offset="1" stop-color="#000"/>
    </linearGradient>
    <linearGradient id="linear-gradient1" x1="-4273.4" y1="795" x2="-4234.4" y2="795" gradientTransform="translate(-3903.3 20) rotate(-180) scale(1 -1)" gradientUnits="userSpaceOnUse">
      <stop offset="0" stop-color="#fff"/>
      <stop offset=".5" stop-color="#000"/>
      <stop offset="1" stop-color="#fff"/>
    </linearGradient>
    <linearGradient id="linear-gradient2" x1="318.1" y1="773.9" x2="383" y2="773.9" gradientTransform="translate(0 20)" gradientUnits="userSpaceOnUse">
      <stop offset="0" stop-color="#474747"/>
      <stop offset=".4" stop-color="#fff"/>
      <stop offset="1" stop-color="#474747"/>
    </linearGradient>
    <linearGradient id="linear-gradient3" x1="322.7" y1="757.9" x2="377.9" y2="757.9" gradientTransform="translate(0 20)" gradientUnits="userSpaceOnUse">
      <stop offset="0" stop-color="#fff"/>
      <stop offset="1" stop-color="#000"/>
    </linearGradient>
    <radialGradient id="radial-gradient" cx="324.8" cy="750.2" fx="324.8" fy="750.2" r="12.6" gradientTransform="translate(0 20)" gradientUnits="userSpaceOnUse">
      <stop offset="0" stop-color="#b3b3b3"/>
      <stop offset="0" stop-color="#ababab"/>
      <stop offset="0" stop-color="#838383"/>
      <stop offset=".2" stop-color="#5f5f5f"/>
      <stop offset=".2" stop-color="#414141"/>
      <stop offset=".3" stop-color="#292929"/>
      <stop offset=".4" stop-color="#161616"/>
      <stop offset=".5" stop-color="#090909"/>
      <stop offset=".7" stop-color="#020202"/>
      <stop offset="1" stop-color="#000"/>
    </radialGradient>
    <linearGradient id="linear-gradient4" x1="732.8" y1="968.4" x2="795.5" y2="968.4" gradientTransform="translate(0 20)" gradientUnits="userSpaceOnUse">
      <stop offset="0" stop-color="#fff"/>
      <stop offset="1" stop-color="#000"/>
    </linearGradient>
    <linearGradient id="linear-gradient5" x1="-4687" y1="989.7" x2="-4648" y2="989.7" gradientTransform="translate(-3903.3 20) rotate(-180) scale(1 -1)" gradientUnits="userSpaceOnUse">
      <stop offset="0" stop-color="#fff"/>
      <stop offset=".5" stop-color="#000"/>
      <stop offset="1" stop-color="#fff"/>
    </linearGradient>
    <linearGradient id="linear-gradient6" x1="731.7" y1="968.5" x2="796.6" y2="968.5" gradientTransform="translate(0 20)" gradientUnits="userSpaceOnUse">
      <stop offset="0" stop-color="#474747"/>
      <stop offset=".4" stop-color="#fff"/>
      <stop offset="1" stop-color="#474747"/>
    </linearGradient>
    <linearGradient id="linear-gradient7" x1="736.3" y1="952.6" x2="791.5" y2="952.6" gradientTransform="translate(0 20)" gradientUnits="userSpaceOnUse">
      <stop offset="0" stop-color="#fff"/>
      <stop offset="1" stop-color="#000"/>
    </linearGradient>
    <radialGradient id="radial-gradient1" cx="738.4" cy="944.9" fx="738.4" fy="944.9" r="12.6" gradientTransform="translate(0 20)" gradientUnits="userSpaceOnUse">
      <stop offset="0" stop-color="#b3b3b3"/>
      <stop offset="0" stop-color="#ababab"/>
      <stop offset="0" stop-color="#838383"/>
      <stop offset=".2" stop-color="#5f5f5f"/>
      <stop offset=".2" stop-color="#414141"/>
      <stop offset=".3" stop-color="#292929"/>
      <stop offset=".4" stop-color="#161616"/>
      <stop offset=".5" stop-color="#090909"/>
      <stop offset=".7" stop-color="#020202"/>
      <stop offset="1" stop-color="#000"/>
    </radialGradient>
    <linearGradient id="linear-gradient8" x1="820" y1="696.5" x2="882.6" y2="696.5" gradientTransform="translate(0 20)" gradientUnits="userSpaceOnUse">
      <stop offset="0" stop-color="#fff"/>
      <stop offset="1" stop-color="#000"/>
    </linearGradient>
    <linearGradient id="linear-gradient9" x1="-4774.1" y1="717.7" x2="-4735.2" y2="717.7" gradientTransform="translate(-3903.3 20) rotate(-180) scale(1 -1)" gradientUnits="userSpaceOnUse">
      <stop offset="0" stop-color="#fff"/>
      <stop offset=".5" stop-color="#000"/>
      <stop offset="1" stop-color="#fff"/>
    </linearGradient>
    <linearGradient id="linear-gradient10" x1="818.9" y1="696.6" x2="883.7" y2="696.6" gradientTransform="translate(0 20)" gradientUnits="userSpaceOnUse">
      <stop offset="0" stop-color="#474747"/>
      <stop offset=".4" stop-color="#fff"/>
      <stop offset="1" stop-color="#474747"/>
    </linearGradient>
    <linearGradient id="linear-gradient11" x1="823.5" y1="680.6" x2="878.6" y2="680.6" gradientTransform="translate(0 20)" gradientUnits="userSpaceOnUse">
      <stop offset="0" stop-color="#fff"/>
      <stop offset="1" stop-color="#000"/>
    </linearGradient>
    <radialGradient id="radial-gradient2" cx="825.5" cy="672.9" fx="825.5" fy="672.9" r="12.6" gradientTransform="translate(0 20)" gradientUnits="userSpaceOnUse">
      <stop offset="0" stop-color="#b3b3b3"/>
      <stop offset="0" stop-color="#ababab"/>
      <stop offset="0" stop-color="#838383"/>
      <stop offset=".2" stop-color="#5f5f5f"/>
      <stop offset=".2" stop-color="#414141"/>
      <stop offset=".3" stop-color="#292929"/>
      <stop offset=".4" stop-color="#161616"/>
      <stop offset=".5" stop-color="#090909"/>
      <stop offset=".7" stop-color="#020202"/>
      <stop offset="1" stop-color="#000"/>
    </radialGradient>
    <linearGradient id="linear-gradient12" x1="192" y1="978.8" x2="254.7" y2="978.8" gradientTransform="translate(0 20)" gradientUnits="userSpaceOnUse">
      <stop offset="0" stop-color="#fff"/>
      <stop offset="1" stop-color="#000"/>
    </linearGradient>
    <linearGradient id="linear-gradient13" x1="-4146.2" y1="1000.1" x2="-4107.2" y2="1000.1" gradientTransform="translate(-3903.3 20) rotate(-180) scale(1 -1)" gradientUnits="userSpaceOnUse">
      <stop offset="0" stop-color="#fff"/>
      <stop offset=".5" stop-color="#000"/>
      <stop offset="1" stop-color="#fff"/>
    </linearGradient>
    <linearGradient id="linear-gradient14" x1="190.9" y1="979" x2="255.8" y2="979" gradientTransform="translate(0 20)" gradientUnits="userSpaceOnUse">
      <stop offset="0" stop-color="#474747"/>
      <stop offset=".4" stop-color="#fff"/>
      <stop offset="1" stop-color="#474747"/>
    </linearGradient>
    <linearGradient id="linear-gradient15" x1="195.5" y1="963" x2="250.7" y2="963" gradientTransform="translate(0 20)" gradientUnits="userSpaceOnUse">
      <stop offset="0" stop-color="#fff"/>
      <stop offset="1" stop-color="#000"/>
    </linearGradient>
    <radialGradient id="radial-gradient3" cx="197.6" cy="955.3" fx="197.6" fy="955.3" r="12.6" gradientTransform="translate(0 20)" gradientUnits="userSpaceOnUse">
      <stop offset="0" stop-color="#b3b3b3"/>
      <stop offset="0" stop-color="#ababab"/>
      <stop offset="0" stop-color="#838383"/>
      <stop offset=".2" stop-color="#5f5f5f"/>
      <stop offset=".2" stop-color="#414141"/>
      <stop offset=".3" stop-color="#292929"/>
      <stop offset=".4" stop-color="#161616"/>
      <stop offset=".5" stop-color="#090909"/>
      <stop offset=".7" stop-color="#020202"/>
      <stop offset="1" stop-color="#000"/>
    </radialGradient>
    <linearGradient id="linear-gradient16" x1="1129.7" y1="941.2" x2="1192.3" y2="941.2" gradientTransform="translate(0 20)" gradientUnits="userSpaceOnUse">
      <stop offset="0" stop-color="#fff"/>
      <stop offset="1" stop-color="#000"/>
    </linearGradient>
    <linearGradient id="linear-gradient17" x1="-5083.9" y1="962.5" x2="-5044.9" y2="962.5" gradientTransform="translate(-3903.3 20) rotate(-180) scale(1 -1)" gradientUnits="userSpaceOnUse">
      <stop offset="0" stop-color="#fff"/>
      <stop offset=".5" stop-color="#000"/>
      <stop offset="1" stop-color="#fff"/>
    </linearGradient>
    <linearGradient id="linear-gradient18" x1="1128.6" y1="941.4" x2="1193.5" y2="941.4" gradientTransform="translate(0 20)" gradientUnits="userSpaceOnUse">
      <stop offset="0" stop-color="#474747"/>
      <stop offset=".4" stop-color="#fff"/>
      <stop offset="1" stop-color="#474747"/>
    </linearGradient>
    <linearGradient id="linear-gradient19" x1="1133.2" y1="925.4" x2="1188.4" y2="925.4" gradientTransform="translate(0 20)" gradientUnits="userSpaceOnUse">
      <stop offset="0" stop-color="#fff"/>
      <stop offset="1" stop-color="#000"/>
    </linearGradient>
    <radialGradient id="radial-gradient4" cx="1135.3" cy="917.7" fx="1135.3" fy="917.7" r="12.6" gradientTransform="translate(0 20)" gradientUnits="userSpaceOnUse">
      <stop offset="0" stop-color="#b3b3b3"/>
      <stop offset="0" stop-color="#ababab"/>
      <stop offset="0" stop-color="#838383"/>
      <stop offset=".2" stop-color="#5f5f5f"/>
      <stop offset=".2" stop-color="#414141"/>
      <stop offset=".3" stop-color="#292929"/>
      <stop offset=".4" stop-color="#161616"/>
      <stop offset=".5" stop-color="#090909"/>
      <stop offset=".7" stop-color="#020202"/>
      <stop offset="1" stop-color="#000"/>
    </radialGradient>
    <clipPath id="clippath-1">
      <rect class="st42" y="323.8" width="1281.8" height="978.1"/>
    </clipPath>
    <clipPath id="clippath-2">
      <rect class="st42" x="1281.8" y="323.8" width="638.2" height="978.1"/>
    </clipPath>
    <linearGradient id="linear-gradient20" x1="1469" y1="993.8" x2="1531.5" y2="993.8" gradientTransform="translate(0 20)" gradientUnits="userSpaceOnUse">
      <stop offset="0" stop-color="#fff"/>
      <stop offset="1" stop-color="#000"/>
    </linearGradient>
    <linearGradient id="linear-gradient21" x1="-5423.1" y1="1015.1" x2="-5384.1" y2="1015.1" gradientTransform="translate(-3903.3 20) rotate(-180) scale(1 -1)" gradientUnits="userSpaceOnUse">
      <stop offset="0" stop-color="#fff"/>
      <stop offset=".5" stop-color="#000"/>
      <stop offset="1" stop-color="#fff"/>
    </linearGradient>
    <linearGradient id="linear-gradient22" x1="1467.8" y1="994" x2="1532.7" y2="994" gradientTransform="translate(0 20)" gradientUnits="userSpaceOnUse">
      <stop offset="0" stop-color="#474747"/>
      <stop offset=".4" stop-color="#fff"/>
      <stop offset="1" stop-color="#474747"/>
    </linearGradient>
    <linearGradient id="linear-gradient23" x1="1472.4" y1="978" x2="1527.6" y2="978" gradientTransform="translate(0 20)" gradientUnits="userSpaceOnUse">
      <stop offset="0" stop-color="#fff"/>
      <stop offset="1" stop-color="#000"/>
    </linearGradient>
    <radialGradient id="radial-gradient5" cx="1474.5" cy="547.9" fx="1474.5" fy="547.9" r="12.6" gradientTransform="translate(0 1080) scale(1 -1)" gradientUnits="userSpaceOnUse">
      <stop offset="0" stop-color="#b3b3b3"/>
      <stop offset="0" stop-color="#ababab"/>
      <stop offset="0" stop-color="#838383"/>
      <stop offset=".2" stop-color="#5f5f5f"/>
      <stop offset=".2" stop-color="#414141"/>
      <stop offset=".3" stop-color="#292929"/>
      <stop offset=".4" stop-color="#161616"/>
      <stop offset=".5" stop-color="#090909"/>
      <stop offset=".7" stop-color="#020202"/>
      <stop offset="1" stop-color="#000"/>
    </radialGradient>
    <linearGradient id="linear-gradient24" x1="1597.7" y1="777.4" x2="1660.3" y2="777.4" gradientTransform="translate(0 20)" gradientUnits="userSpaceOnUse">
      <stop offset="0" stop-color="#fff"/>
      <stop offset="1" stop-color="#000"/>
    </linearGradient>
    <linearGradient id="linear-gradient25" x1="-5551.9" y1="798.6" x2="-5513" y2="798.6" gradientTransform="translate(-3903.3 20) rotate(-180) scale(1 -1)" gradientUnits="userSpaceOnUse">
      <stop offset="0" stop-color="#fff"/>
      <stop offset=".5" stop-color="#000"/>
      <stop offset="1" stop-color="#fff"/>
    </linearGradient>
    <linearGradient id="linear-gradient26" x1="1596.7" y1="777.5" x2="1661.5" y2="777.5" gradientTransform="translate(0 20)" gradientUnits="userSpaceOnUse">
      <stop offset="0" stop-color="#474747"/>
      <stop offset=".4" stop-color="#fff"/>
      <stop offset="1" stop-color="#474747"/>
    </linearGradient>
    <linearGradient id="linear-gradient27" x1="1601.3" y1="761.5" x2="1656.4" y2="761.5" gradientTransform="translate(0 20)" gradientUnits="userSpaceOnUse">
      <stop offset="0" stop-color="#fff"/>
      <stop offset="1" stop-color="#000"/>
    </linearGradient>
    <radialGradient id="radial-gradient6" cx="1603.3" cy="331.4" fx="1603.3" fy="331.4" r="12.6" gradientTransform="translate(0 1080) scale(1 -1)" gradientUnits="userSpaceOnUse">
      <stop offset="0" stop-color="#b3b3b3"/>
      <stop offset="0" stop-color="#ababab"/>
      <stop offset="0" stop-color="#838383"/>
      <stop offset=".2" stop-color="#5f5f5f"/>
      <stop offset=".2" stop-color="#414141"/>
      <stop offset=".3" stop-color="#292929"/>
      <stop offset=".4" stop-color="#161616"/>
      <stop offset=".5" stop-color="#090909"/>
      <stop offset=".7" stop-color="#020202"/>
      <stop offset="1" stop-color="#000"/>
    </radialGradient>
  </defs>
  <g class="st60">
    <g class="st19">
      <g id="Layer_11" data-name="Layer_1">
        <g class="st19">
          <g id="Layer_11">
            <g class="st57">
              <rect width="1920" height="1081"/>
            </g>
            <g>
              <g>
                <g>
                  <path class="st54" d="M359.7,795.6h.2c-3.6-2.8-7.5-2.8-7.5-2.8,0,0-3.9,0-7.5,2.8h-.2c-1,.8-2,1.8-2.9,3.1,2.4,1.9,5.7,3.3,10.4,3.3s8.1-1.4,10.4-3.3c-.9-1.3-1.9-2.4-2.9-3.1Z"/>
                  <path class="st54" d="M373.9,786.2h-.2v-1.2h-.2c-.2-2.3-.8-4.5-1.7-6.5h-.5c-.8-1.8-1.9-3.5-3.1-5h.5c-.6-.7-1.1-1.3-1.8-1.9h.3c-3.8-3.5-8.9-5.7-14.5-5.7s-10.7,2.2-14.5,5.7h-.3c-.6.6-1.2,1.2-1.8,1.9h-.5c-1.3,1.5-2.3,3.2-3.1,5h.5c-.9,2-1.5,4.2-1.7,6.5h.2v1.2h.2v1c0,1.4.1,2.8.4,4.2h-.4c.3,1.4.7,2.8,1.3,4.2,1,2.4,2.5,4.6,4.3,6.5h-.3c1.7,1.7,3.6,3.1,5.7,4.2h.3c2.9,1.4,6.1,2.2,9.5,2.2s6.7-.8,9.5-2.2h-.3c2.1-1.1,4-2.5,5.7-4.2h.1c1.8-1.9,3.3-4.1,4.3-6.5h.2c.6-1.3,1-2.7,1.3-4.2h.4c.3-1.4.4-2.8.4-4.2s0-.7,0-1h-.2ZM362.7,780.4c0,2-1.1,3.6-2.5,3.6s-2.5-1.6-2.5-3.6.1-1.3.4-1.9h-.5c.4-1,1.3-1.7,2.2-1.7s1.7.7,2.2,1.7h.5c.2.6.4,1.2.4,1.9h-.2ZM343.8,776.8c.9,0,1.7.7,2.2,1.7h.5c.2.6.4,1.2.4,1.9,0,2-1.1,3.6-2.5,3.6s-2.5-1.6-2.5-3.6.1-1.3.4-1.9h-.5c.4-1,1.3-1.7,2.2-1.7h-.2ZM367.9,791.4c-.2.9-.7,2.5-1.7,4.2h-.2c-1.4,2.4-3.7,5-7.6,6.5h-.1c-1.8.7-3.9,1.1-6.4,1.1s-4.6-.4-6.4-1.1h.3c-3.9-1.4-6.2-4.1-7.6-6.5-1-1.7-1.5-3.2-1.7-4.2h.4c-.1-.6-.2-.9-.2-.9h31.7s0,.3-.2.9h-.4.1Z"/>
                </g>
                <g>
                  <path class="st54" d="M356.5,794.1h.2c-3.6-2.8-7.5-2.8-7.5-2.8,0,0-3.9,0-7.5,2.8h-.2c-1,.8-2,1.8-2.9,3.1,2.4,1.9,5.7,3.3,10.4,3.3s8.1-1.4,10.4-3.3c-.9-1.3-1.9-2.4-2.9-3.1Z"/>
                  <path class="st54" d="M370.6,784.7h-.2v-1.2h-.2c-.2-2.3-.8-4.5-1.7-6.5h-.5c-.8-1.8-1.9-3.5-3.1-5h.5c-.6-.7-1.1-1.3-1.8-1.9h.3c-3.8-3.5-8.9-5.7-14.5-5.7s-10.7,2.2-14.5,5.7h-.3c-.6.6-1.2,1.2-1.8,1.9h-.5c-1.3,1.5-2.3,3.2-3.1,5h.5c-.9,2-1.5,4.2-1.7,6.5h.2v1.2h.2v1c0,1.4.1,2.8.4,4.2h-.4c.3,1.4.7,2.8,1.3,4.2,1,2.4,2.5,4.6,4.3,6.5h-.3c1.7,1.7,3.6,3.1,5.7,4.2h.3c2.9,1.4,6.1,2.2,9.5,2.2s6.7-.8,9.5-2.2h-.3c2.1-1.1,4-2.5,5.7-4.2h.1c1.8-1.9,3.3-4.1,4.3-6.5h.2c.6-1.3,1-2.7,1.3-4.2h.4c.3-1.4.4-2.8.4-4.2s0-.7,0-1h-.2Z"/>
                </g>
                <g>
                  <path d="M358,794.9h.2c-3.6-2.8-7.5-2.8-7.5-2.8,0,0-3.9,0-7.5,2.8h-.2c-1,.8-2,1.8-2.9,3.1,2.4,1.9,5.7,3.3,10.4,3.3s8.1-1.4,10.4-3.3c-.9-1.3-1.9-2.4-2.9-3.1Z"/>
                  <path d="M372.1,785.5h-.2v-1.2h-.2c-.2-2.3-.8-4.5-1.7-6.5h-.5c-.8-1.8-1.9-3.5-3.1-5h.5c-.6-.7-1.1-1.3-1.8-1.9h.3c-3.8-3.5-8.9-5.7-14.5-5.7s-10.7,2.2-14.5,5.7h-.3c-.6.6-1.2,1.2-1.8,1.9h-.5c-1.3,1.5-2.3,3.2-3.1,5h.5c-.9,2-1.5,4.2-1.7,6.5h.2v1.2h.2v1c0,1.4.1,2.8.4,4.2h-.4c.3,1.4.7,2.8,1.3,4.2,1,2.4,2.5,4.6,4.3,6.5h-.3c1.7,1.7,3.6,3.1,5.7,4.2h.3c2.9,1.4,6.1,2.2,9.5,2.2s6.7-.8,9.5-2.2h-.3c2.1-1.1,4-2.5,5.7-4.2h.1c1.8-1.9,3.3-4.1,4.3-6.5h.2c.6-1.3,1-2.7,1.3-4.2h.4c.3-1.4.4-2.8.4-4.2s0-.7,0-1h-.2ZM361,779.6c0,2-1.1,3.6-2.5,3.6s-2.5-1.6-2.5-3.6.1-1.3.4-1.9h-.5c.4-1,1.3-1.7,2.2-1.7s1.7.7,2.2,1.7h.5c.2.6.4,1.2.4,1.9h-.2ZM342,776c.9,0,1.7.7,2.2,1.7h.5c.2.6.4,1.2.4,1.9,0,2-1.1,3.6-2.5,3.6s-2.5-1.6-2.5-3.6.1-1.3.4-1.9h-.5c.4-1,1.3-1.7,2.2-1.7h-.2ZM366.1,790.7c-.2.9-.7,2.5-1.7,4.2h-.2c-1.4,2.4-3.7,5-7.6,6.5h-.1c-1.8.7-3.9,1.1-6.4,1.1s-4.6-.4-6.4-1.1h.3c-3.9-1.4-6.2-4.1-7.6-6.5-1-1.7-1.5-3.2-1.7-4.2h.4c-.1-.6-.2-.9-.2-.9h31.7s0,.3-.2.9h-.4.1Z"/>
                </g>
              </g>
              <g>
                <g>
                  <path class="st24" d="M372.7,765.1h0c-12.2-12.2-32-12.2-44.3,0h0c-12.2,12.2-12.2,32,0,44.3l22.1,22.1,22.1-22.1c12.2-12.2,12.2-32,0-44.3h0Z"/>
                  <path class="st16" d="M331.1,807.9c.1,0,.3.3.4.4l19.2,19.2,18.9-18.9c.3-.6.4-1.1.4-1.7,0-2.1-1.6-4.2-3.7-4.5-1.8-.3-3.7.6-5,1.8-1.4,1.3-2.3,2.9-3.4,4.4-1.7,2.4-3.6,4.6-6.2,6.1-2.5,1.5-5.6,2.1-8.4,1.2-3.8-1.3-6.1-5.1-9.5-7.3-.8-.5-1.8-.9-2.8-.8h.1Z"/>
                  <g class="st59">
                    <path class="st23" d="M350.5,833l-22.9-22.9c-6.1-6.1-9.5-14.3-9.5-22.9s3.4-16.8,9.5-22.9c6.1-6.1,14.3-9.5,22.9-9.5s16.8,3.4,22.9,9.5l-.5.5.5-.5c6.1,6.1,9.5,14.3,9.5,22.9s-3.4,16.8-9.5,22.9l-22.9,22.9ZM350.5,756.2c-8.3,0-16.1,3.2-21.9,9.1-12.1,12.1-12.1,31.7,0,43.8l21.9,21.9,21.9-21.9c12.1-12.1,12.1-31.7,0-43.8-5.8-5.8-13.6-9.1-21.9-9.1Z"/>
                  </g>
                  <path class="st0" d="M377.9,786.6c0,1.1,0,2.2-.2,3.3-1.3-3.4-3.6-6.4-6.6-8.4-6.1-4-14.7-3.7-20.5.8-3.3,2.5-5.5,6.1-8.3,9.1-2.7,2.9-6.4,5.6-10.6,5.3-3.4-.3-6.5-2.7-7.9-5.9-3.3-7.2,1.3-17.2,6.2-22.7,5.2-5.7,12.7-9,20.4-9,15.2,0,27.5,12.3,27.5,27.5h0Z"/>
                </g>
                <circle class="st28" cx="324.8" cy="770.2" r="12.6"/>
              </g>
            </g>
            <g>
              <g>
                <g>
                  <g>
                    <polygon class="st54" points="781.1 975.8 780.7 973.6 780.7 973.5 780.1 973.6 778.4 973.9 778.8 976.2 781.1 975.8"/>
                    <rect class="st54" x="780.1" y="971.6" width="2.3" height="2.3" transform="translate(-152.7 145.5) rotate(-9.7)"/>
                    <rect class="st54" x="758.8" y="969.3" width="2.3" height="2.3" transform="translate(-209.5 209.3) rotate(-13.8)"/>
                    <polygon class="st54" points="757.2 975.1 759.5 974.5 759.3 973.6 758.9 972.3 756.7 972.8 756.9 973.6 757.2 975.1"/>
                    <path class="st54" d="M773.5,990.9h.3c-3.5-2.5-7.1-2.4-7.1-2.4,0,0-3.6,0-7.1,2.4h-.3c-1.2.8-2.4,2-3.4,3.6,1.1.9,2.3,1.6,3.9,2.2h0c1.8.7,4,1.1,6.7,1.1s4.8-.4,6.7-1.1h0c1.5-.6,2.8-1.4,3.9-2.2-1-1.6-2.2-2.7-3.4-3.6h-.2Z"/>
                    <path class="st54" d="M787.3,978.3h-.3c0-.4-.2-.8-.3-1.2h.4c-.3-1-.7-2.1-1.1-3,0,0,0-.3,0-.4h-.6c0-.4.2-.8.3-1.2.2-1.6-.2-3.1-1.2-4.4h0c-.5-.7-1.2-1.2-1.9-1.6h.6c-.6-.3-1.3-.5-1.9-.6h-1.7c-1.4-1.1-2.8-1.9-4.4-2.7h-.9c-2.7-1.2-5.7-1.9-8.8-1.9s-6.1.7-8.8,1.9h.9c-1.6.7-3.1,1.6-4.4,2.7h-1.7c-.7,0-1.4.3-1.9.6h-.4c-.8.4-1.4.9-1.9,1.6h0c-1,1.2-1.4,2.8-1.2,4.4s0,.8.3,1.2h.4c0,0,0,.3,0,.4-.4,1-.8,2-1.1,3h-.2c0,.4-.2.8-.3,1.2h.3c-.3,1.5-.5,3-.5,4.5s0,.7,0,1.1c0,1.4.3,2.8.6,4.1h-.3c.3,1,.6,2,1,2.9.8,2.1,2,4.1,3.5,5.8h-.5c2.2,2.7,5.1,4.8,8.4,6.1h.9c2.5,1,5.2,1.6,8.1,1.6s5.6-.6,8.1-1.6h-.9c3.3-1.3,6.1-3.4,8.4-6.1h.3c1.4-1.7,2.6-3.7,3.5-5.8h.2c.4-.9.7-1.9,1-2.9h.3c.3-1.3.5-2.7.6-4.1v-1.1c0-1.6-.2-3.1-.5-4.5h-.5ZM774.6,965.7c.7,0,1.4.3,2,.7h-.6c.4.2.8.5,1.1.8,0,0,.2,0,.3-.2h1.1c.3,0,.7,0,1,0h.8c1.2.2,2.2.7,3,1.5h0c1.1,1.1,1.7,2.7,1.5,4.3,0,.4,0,.7-.2,1v.3h.6c-.5,1.3-1.2,2.5-2.2,3.4h-.4c-.4.5-.9.9-1.4,1.2h.3c-2.7,2.1-5.8,3.1-5.8,3.1,0,0-1.9-1.1-3.7-3.1h-.3c-.4-.4-.7-.8-1.1-1.2h.4c-.8-1-1.5-2.2-1.9-3.4h-.6c-.3-.8-.4-1.5-.5-2.4v-1.1c0-.8.4-1.5.8-2.2.4-.7,1-1.2,1.7-1.6h.5c.8-.5,1.7-.7,2.7-.7s.4,0,.7,0h0v-.3ZM749.2,977.1h.2c-.9-1-1.7-2.1-2.2-3.4h-.4v-.6c0-.2,0-.5,0-.7-.2-1.7.4-3.2,1.5-4.3h0c.8-.8,1.8-1.3,3-1.5h.8c.3,0,.7,0,1,0h1.1c0,0,.2,0,.3.2.3-.3.7-.6,1.1-.8h.4c.6-.4,1.3-.6,2-.7h.7c1,0,1.9.3,2.7.7h-.5c.7.4,1.2.9,1.7,1.6.4.6.7,1.4.8,2.2v1.1c0,.8-.2,1.6-.5,2.4h.6c-.4,1.3-1.1,2.4-1.9,3.4h-.4c-.3.4-.7.8-1.1,1.2h.3c-1.8,1.9-3.7,3.1-3.7,3.1,0,0-3.1-1-5.8-3.1h-.3c-.5-.4-.9-.8-1.4-1.2h0v.3Z"/>
                  </g>
                  <g>
                    <polygon class="st54" points="778 974.6 777.6 972.4 777.6 972.3 777 972.4 775.3 972.7 775.7 974.9 778 974.6"/>
                    <rect class="st54" x="777.1" y="970.2" width="2.3" height="2.3" transform="translate(-152.5 145) rotate(-9.7)"/>
                    <rect class="st54" x="755.8" y="968" width="2.3" height="2.3" transform="translate(-209.3 208.5) rotate(-13.8)"/>
                    <polygon class="st54" points="754.1 973.8 756.4 973.2 756.2 972.4 755.8 971 753.6 971.5 753.8 972.4 754.1 973.8"/>
                    <path class="st54" d="M770.4,989.6h.3c-3.5-2.5-7.1-2.4-7.1-2.4,0,0-3.6,0-7.1,2.4h-.3c-1.2.8-2.4,2-3.4,3.6,1.1.9,2.3,1.6,3.9,2.2h0c1.8.7,4,1.1,6.7,1.1s4.8-.4,6.7-1.1h0c1.5-.6,2.8-1.4,3.9-2.2-1-1.6-2.2-2.7-3.4-3.6h-.2Z"/>
                    <path class="st54" d="M784.2,977h-.3c0-.4-.2-.8-.3-1.2h.4c-.3-1-.7-2.1-1.1-3,0,0,0-.3,0-.4h-.6c0-.4.2-.8.3-1.2.2-1.6-.2-3.1-1.2-4.4h0c-.5-.7-1.2-1.2-1.9-1.6h.6c-.6-.3-1.3-.5-1.9-.6h-1.7c-1.4-1.1-2.8-1.9-4.4-2.7h-.9c-2.7-1.2-5.7-1.9-8.8-1.9s-6.1.7-8.8,1.9h.9c-1.6.7-3.1,1.6-4.4,2.7h-1.7c-.7,0-1.4.3-1.9.6h-.4c-.8.4-1.4.9-1.9,1.6h0c-1,1.2-1.4,2.8-1.2,4.4s0,.8.3,1.2h.4c0,0,0,.3,0,.4-.4,1-.8,2-1.1,3h-.2c0,.4-.2.8-.3,1.2h.3c-.3,1.5-.5,3-.5,4.5s0,.7,0,1.1c0,1.4.3,2.8.6,4.1h-.3c.3,1,.6,2,1,2.9.8,2.1,2,4.1,3.5,5.8h-.5c2.2,2.7,5.1,4.8,8.4,6.1h.9c2.5,1,5.2,1.6,8.1,1.6s5.6-.6,8.1-1.6h-.9c3.3-1.3,6.1-3.4,8.4-6.1h.3c1.4-1.7,2.6-3.7,3.5-5.8h.2c.4-.9.7-1.9,1-2.9h.3c.3-1.3.5-2.7.6-4.1v-1.1c0-1.6-.2-3.1-.5-4.5h-.5ZM779.2,986.7c-.3.8-.7,1.8-1.3,2.9h-.2c-1.1,2-2.8,4.2-5.5,5.8h-.3c-2.2,1.3-5.1,2.2-8.9,2.2s-6.7-.9-8.9-2.2h.5c-2.7-1.6-4.4-3.8-5.5-5.8-.6-1.1-1-2.1-1.3-2.9h.3c-.3-1.1-.5-1.8-.5-1.8h32.1s0,.7-.5,1.8h-.3.3ZM771.5,964.5c.7,0,1.4.3,2,.7h-.6c.4.2.8.5,1.1.8,0,0,.2,0,.3-.2h1.1c.3,0,.7,0,1,0h.8c1.2.2,2.2.7,3,1.5h0c1.1,1.1,1.7,2.7,1.5,4.3,0,.4,0,.7-.2,1v.3h.6c-.5,1.3-1.2,2.5-2.2,3.4h-.4c-.4.5-.9.9-1.4,1.2h.3c-2.7,2.1-5.8,3.1-5.8,3.1,0,0-1.9-1.1-3.7-3.1h-.3c-.4-.4-.7-.8-1.1-1.2h.4c-.8-1-1.5-2.2-1.9-3.4h-.6c-.3-.8-.4-1.5-.5-2.4v-1.1c0-.8.4-1.5.8-2.2.4-.7,1-1.2,1.7-1.6h.5c.8-.5,1.7-.7,2.7-.7s.4,0,.7,0h0v-.3ZM746.1,975.8h.2c-.9-1-1.7-2.1-2.2-3.4h-.4v-.6c0-.2,0-.5,0-.7-.2-1.7.4-3.2,1.5-4.3h0c.8-.8,1.8-1.3,3-1.5h.8c.3,0,.7,0,1,0h1.1c0,0,.2,0,.3.2.3-.3.7-.6,1.1-.8h.4c.6-.4,1.3-.6,2-.7h.7c1,0,1.9.3,2.7.7h-.5c.7.4,1.2.9,1.7,1.6.4.6.7,1.4.8,2.2v1.1c0,.8-.2,1.6-.5,2.4h.6c-.4,1.3-1.1,2.4-1.9,3.4h-.4c-.3.4-.7.8-1.1,1.2h.3c-1.8,1.9-3.7,3.1-3.7,3.1,0,0-3.1-1-5.8-3.1h-.3c-.5-.4-.9-.8-1.4-1.2h0v.3Z"/>
                  </g>
                </g>
                <g>
                  <polygon class="st55" points="755.3 974.3 757.6 973.8 757.4 972.9 757 971.5 754.8 972.1 755 972.9 755.3 974.3"/>
                  <rect class="st55" x="778.2" y="970.8" width="2.3" height="2.3" transform="translate(-152.6 145.2) rotate(-9.7)"/>
                  <polygon class="st55" points="779.2 975.1 778.9 972.9 778.8 972.8 778.2 972.9 776.5 973.2 776.9 975.5 779.2 975.1"/>
                  <rect class="st55" x="757" y="968.5" width="2.3" height="2.3" transform="translate(-209.4 208.8) rotate(-13.8)"/>
                  <path class="st55" d="M771.6,990.2h.3c-3.5-2.5-7.1-2.4-7.1-2.4,0,0-3.6,0-7.1,2.4h-.3c-1.2.8-2.4,2-3.4,3.6,1.1.9,2.3,1.6,3.9,2.2h0c1.8.7,4,1.1,6.7,1.1s4.8-.4,6.7-1.1h0c1.5-.6,2.8-1.4,3.9-2.2-1-1.6-2.2-2.7-3.4-3.6h-.2Z"/>
                  <path class="st55" d="M785.5,977.5h-.3c0-.4-.2-.8-.3-1.2h.4c-.3-1-.7-2.1-1.1-3,0,0,0-.3,0-.4h-.6c0-.4.2-.8.3-1.2.2-1.6-.2-3.1-1.2-4.4h0c-.5-.7-1.2-1.2-1.9-1.6h.6c-.6-.3-1.3-.5-1.9-.6h-1.7c-1.4-1.1-2.8-1.9-4.4-2.7h-.9c-2.7-1.2-5.7-1.9-8.8-1.9s-6.1.7-8.8,1.9h.9c-1.6.7-3.1,1.6-4.4,2.7h-1.7c-.7,0-1.4.3-1.9.6h-.4c-.8.4-1.4.9-1.9,1.6h0c-1,1.2-1.4,2.8-1.2,4.4s0,.8.3,1.2h.4c0,0,0,.3,0,.4-.4,1-.8,2-1.1,3h-.2c0,.4-.2.8-.3,1.2h.3c-.3,1.5-.5,3-.5,4.5s0,.7,0,1.1c0,1.4.3,2.8.6,4.1h-.3c.3,1,.6,2,1,2.9.8,2.1,2,4.1,3.5,5.8h-.5c2.2,2.7,5.1,4.8,8.4,6.1h.9c2.5,1,5.2,1.6,8.1,1.6s5.6-.6,8.1-1.6h-.9c3.3-1.3,6.1-3.4,8.4-6.1h.3c1.4-1.7,2.6-3.7,3.5-5.8h.2c.4-.9.7-1.9,1-2.9h.3c.3-1.3.5-2.7.6-4.1v-1.1c0-1.6-.2-3.1-.5-4.5h-.5ZM780.4,987.2c-.3.8-.7,1.8-1.3,2.9h-.2c-1.1,2-2.8,4.2-5.5,5.8h-.3c-2.2,1.3-5.1,2.2-8.9,2.2s-6.7-.9-8.9-2.2h.5c-2.7-1.6-4.4-3.8-5.5-5.8-.6-1.1-1-2.1-1.3-2.9h.3c-.3-1.1-.5-1.8-.5-1.8h32.1s0,.7-.5,1.8h-.3.3ZM772.8,965c.7,0,1.4.3,2,.7h-.6c.4.2.8.5,1.1.8,0,0,.2,0,.3-.2h1.1c.3,0,.7,0,1,0h.8c1.2.2,2.2.7,3,1.5h0c1.1,1.1,1.7,2.7,1.5,4.3,0,.4,0,.7-.2,1v.3h.6c-.5,1.3-1.2,2.5-2.2,3.4h-.4c-.4.5-.9.9-1.4,1.2h.3c-2.7,2.1-5.8,3.1-5.8,3.1,0,0-1.9-1.1-3.7-3.1h-.3c-.4-.4-.7-.8-1.1-1.2h.4c-.8-1-1.5-2.2-1.9-3.4h-.6c-.3-.8-.4-1.5-.5-2.4v-1.1c0-.8.4-1.5.8-2.2.4-.7,1-1.2,1.7-1.6h.5c.8-.5,1.7-.7,2.7-.7s.4,0,.7,0h0v-.3ZM747.3,976.3h.2c-.9-1-1.7-2.1-2.2-3.4h-.4v-.6c0-.2,0-.5,0-.7-.2-1.7.4-3.2,1.5-4.3h0c.8-.8,1.8-1.3,3-1.5h.8c.3,0,.7,0,1,0h.3s.2,0,.3,0h.5c0,0,.2,0,.3.2.3-.3.7-.6,1.1-.8h.4c.6-.4,1.3-.6,2-.7h.7c1,0,1.9.3,2.7.7h-.5c.7.4,1.2.9,1.7,1.6.4.6.7,1.4.8,2.2v1.1c0,.8-.2,1.6-.5,2.4h.6c-.4,1.3-1.1,2.4-1.9,3.4h-.4c-.3.4-.7.8-1.1,1.2h.3c-1.8,1.9-3.7,3.1-3.7,3.1,0,0-3.1-1-5.8-3.1h-.3c-.5-.4-.9-.8-1.4-1.2h0v.2Z"/>
                </g>
              </g>
              <g>
                <g>
                  <path class="st36" d="M786.3,959.7h0c-12.2-12.2-32-12.2-44.3,0h0c-12.2,12.2-12.2,32,0,44.3l22.1,22.1,22.1-22.1c12.2-12.2,12.2-32,0-44.3h.1Z"/>
                  <path class="st3" d="M744.7,1002.6l.4.4,19.2,19.2,18.9-18.9c.3-.6.4-1.1.4-1.7,0-2.1-1.6-4.2-3.7-4.5-1.8-.3-3.7.6-5,1.8s-2.3,2.9-3.4,4.4c-1.7,2.4-3.6,4.6-6.2,6.1-2.5,1.5-5.6,2.1-8.4,1.2-3.8-1.3-6.1-5.1-9.5-7.3-.8-.5-1.8-.9-2.8-.8h0Z"/>
                  <g class="st59">
                    <path class="st15" d="M764.1,1027.6l-22.9-22.9c-6.1-6.1-9.5-14.3-9.5-22.9s3.4-16.8,9.5-22.9c6.1-6.1,14.3-9.5,22.9-9.5s16.8,3.4,22.9,9.5l-.5.5.5-.5c6.1,6.1,9.5,14.3,9.5,22.9s-3.4,16.8-9.5,22.9l-22.9,22.9ZM764.1,950.8c-8.3,0-16.1,3.2-21.9,9.1-12.1,12.1-12.1,31.7,0,43.8l21.9,21.9,21.9-21.9c12.1-12.1,12.1-31.7,0-43.8s-13.6-9.1-21.9-9.1Z"/>
                  </g>
                  <path class="st37" d="M791.5,981.3c0,1.1,0,2.2-.2,3.3-1.3-3.4-3.6-6.4-6.6-8.4-6.1-4-14.7-3.7-20.5.8-3.3,2.5-5.5,6.1-8.3,9.1-2.7,2.9-6.4,5.6-10.6,5.3-3.4-.3-6.5-2.7-7.9-5.9-3.3-7.2,1.3-17.2,6.2-22.7,5.2-5.7,12.7-9,20.4-9,15.2,0,27.5,12.3,27.5,27.5h0Z"/>
                </g>
                <circle class="st29" cx="738.4" cy="964.9" r="12.6"/>
              </g>
            </g>
            <g>
              <g>
                <g>
                  <g>
                    <rect class="st54" x="855.1" y="713.9" width="2.8" height="2.8" transform="translate(-92.2 127.8) rotate(-8.1)"/>
                    <polygon class="st54" points="859.6 708.1 860 710.8 860 710.9 860.6 710.8 862.8 710.5 862.4 707.7 859.6 708.1"/>
                    <polygon class="st54" points="857.3 712.2 857.6 714.1 860.4 713.7 860.2 712.2 860 710.9 857.2 711.3 857.3 712.2"/>
                    <path class="st54" d="M873.8,704.2h-.4c-.4-1.8-1.1-3.6-2-5.2h-.7c-.9-1.6-2-3.1-3.3-4.5h.4c-.5-.6-1.1-1.1-1.7-1.6h.4c-2.1-1.8-4.6-3.2-7.4-4.1h.7c-2.1-.7-4.3-1-6.6-1s-4.5.4-6.6,1h-.7c-2.7.9-5.2,2.3-7.4,4.1h-.4c-.6.5-1.1,1-1.7,1.6h-.4c-1.3,1.3-2.4,2.8-3.3,4.5h.7c-.9,1.6-1.6,3.3-2,5.2h.4c-.4,1.6-.6,3.3-.6,5.1s0,1,0,1.5h0c0,.5,0,.9,0,1.4h-.4c.3,1.8.7,3.6,1.4,5.3h.2c.8,1.9,1.8,3.7,3.1,5.3h.4c.6.7,1.2,1.4,1.8,2h-.8c1.5,1.5,3.3,2.7,5.2,3.7h.8c2.9,1.5,6.3,2.3,9.8,2.3s6.8-.8,9.8-2.3h-.8c1.9-1,3.6-2.2,5.2-3.7h.8c.6-.6,1.3-1.3,1.8-2h-.4c1.3-1.6,2.3-3.4,3.1-5.3h-.2c.7-1.7,1.2-3.4,1.4-5.3h.4c0-.4,0-.9,0-1.4h0v-1.5c0-1.8-.2-3.5-.6-5.1h.4Z"/>
                  </g>
                  <g>
                    <rect class="st54" x="852.4" y="713" width="2.8" height="2.8" transform="translate(-92.1 127.4) rotate(-8.1)"/>
                    <polygon class="st54" points="856.8 707.2 857.2 709.9 857.2 709.9 857.8 709.9 860 709.6 859.6 706.8 856.8 707.2"/>
                    <polygon class="st54" points="854.5 711.2 854.8 713.1 857.6 712.7 857.4 711.2 857.2 709.9 854.4 710.4 854.5 711.2"/>
                    <path class="st54" d="M871,703.2h-.4c-.4-1.8-1.1-3.6-2-5.2h-.7c-.9-1.6-2-3.1-3.3-4.5h.4c-.5-.6-1.1-1.1-1.7-1.6h.4c-2.1-1.8-4.6-3.2-7.4-4.1h.7c-2.1-.7-4.3-1-6.6-1s-4.5.4-6.6,1h-.7c-2.7.9-5.2,2.3-7.4,4.1h-.4c-.6.5-1.1,1-1.7,1.6h-.4c-1.3,1.3-2.4,2.8-3.3,4.5h.7c-.9,1.6-1.6,3.3-2,5.2h.4c-.4,1.6-.6,3.3-.6,5.1s0,1,0,1.5h0c0,.5,0,.9,0,1.4h-.4c.3,1.8.7,3.6,1.4,5.3h.2c.8,1.9,1.8,3.7,3.1,5.3h.4c.6.7,1.2,1.4,1.8,2h-.8c1.5,1.5,3.3,2.7,5.2,3.7h.8c2.9,1.5,6.3,2.3,9.8,2.3s6.8-.8,9.8-2.3h-.8c1.9-1,3.6-2.2,5.2-3.7h.8c.6-.6,1.3-1.3,1.8-2h-.4c1.3-1.6,2.3-3.4,3.1-5.3h-.2c.7-1.7,1.2-3.4,1.4-5.3h.4c0-.4,0-.9,0-1.4h0v-1.5c0-1.8-.2-3.5-.6-5.1h.4ZM863.4,709.9c-.2.5-.4.9-.6,1.4h-.4c-1,2-2.3,3.8-3.8,5.3h.2c-2.4,2.4-5.1,4.2-6.9,5.3h.4c-1.3.7-2.1,1.1-2.1,1.1,0,0-.8-.4-2.1-1.1h-.4c-1.8-1.1-4.5-2.8-6.9-5.3h-.2c-1.5-1.5-2.9-3.3-3.8-5.3h.4c-.2-.4-.4-.9-.6-1.4h0c-.3-.8-.5-1.6-.7-2.4,0-.6-.2-1.2-.2-1.8s0-1.7.3-2.4h-.4c.6-2.2,2.1-4.1,4-5.2h-.7c1.3-.8,2.8-1.2,4.4-1.2s3.1.4,4.4,1.2h.7c.4.2.8.5,1.1.8.3-.3.7-.5,1.1-.8h-.7c1.3-.8,2.8-1.2,4.4-1.2s3.1.4,4.4,1.2h.7c1.9,1.1,3.4,3,4,5.2h.4c.2.8.3,1.6.3,2.4s0,1.2-.2,1.8c0,.8-.4,1.7-.7,2.4h0,.2Z"/>
                  </g>
                </g>
                <g>
                  <rect class="st55" x="853.7" y="713.4" width="2.8" height="2.8" transform="translate(-92.2 127.6) rotate(-8.1)"/>
                  <polygon class="st55" points="858.1 707.5 858.5 710.2 858.5 710.3 859.1 710.2 861.3 709.9 860.9 707.1 858.1 707.5"/>
                  <polygon class="st55" points="855.8 711.6 856.1 713.5 858.9 713.1 858.7 711.6 858.5 710.3 855.7 710.7 855.8 711.6"/>
                  <path class="st55" d="M872.3,703.6h-.4c-.4-1.8-1.1-3.6-2-5.2h-.7c-.9-1.6-2-3.1-3.3-4.5h.4c-.5-.6-1.1-1.1-1.7-1.6h.4c-2.1-1.8-4.6-3.2-7.4-4.1h.7c-2.1-.7-4.3-1-6.6-1s-4.5.4-6.6,1h-.7c-2.7.9-5.2,2.3-7.4,4.1h-.4c-.6.5-1.1,1-1.7,1.6h-.4c-1.3,1.3-2.4,2.8-3.3,4.5h.7c-.9,1.6-1.6,3.3-2,5.2h.4c-.4,1.6-.6,3.3-.6,5.1s0,1,0,1.5h0c0,.5,0,.9,0,1.4h-.4c.3,1.8.7,3.6,1.4,5.3h.2c.8,1.9,1.8,3.7,3.1,5.3h.4c.6.7,1.2,1.4,1.8,2h-.8c1.5,1.5,3.3,2.7,5.2,3.7h.8c2.9,1.5,6.3,2.3,9.8,2.3s6.8-.8,9.8-2.3h-.8c1.9-1,3.6-2.2,5.2-3.7h.8c.6-.6,1.3-1.3,1.8-2h-.4c1.3-1.6,2.3-3.4,3.1-5.3h-.2c.7-1.7,1.2-3.4,1.4-5.3h.4c0-.4,0-.9,0-1.4h0v-1.5c0-1.8-.2-3.5-.6-5.1h.4ZM864.7,710.2c-.2.5-.4.9-.6,1.4h-.4c-1,2-2.3,3.8-3.8,5.3h.2c-2.4,2.4-5.1,4.2-6.9,5.3h.4c-1.3.7-2.1,1.1-2.1,1.1,0,0-.8-.4-2.1-1.1h-.4c-1.8-1.1-4.5-2.8-6.9-5.3h-.2c-1.5-1.5-2.9-3.3-3.8-5.3h.4c-.2-.4-.4-.9-.6-1.4h0c-.3-.8-.5-1.6-.7-2.4,0-.6-.2-1.2-.2-1.8s0-1.7.3-2.4h-.4c.6-2.2,2.1-4.1,4-5.2h-.7c1.3-.8,2.8-1.2,4.4-1.2s3.1.4,4.4,1.2h.7c.4.2.8.5,1.1.8.3-.3.7-.5,1.1-.8h-.7c1.3-.8,2.8-1.2,4.4-1.2s3.1.4,4.4,1.2h.7c1.9,1.1,3.4,3,4,5.2h.4c.2.8.3,1.6.3,2.4s0,1.2-.2,1.8c0,.8-.4,1.7-.7,2.4h0,.2Z"/>
                </g>
              </g>
              <g>
                <g>
                  <path class="st21" d="M873.4,687.8h0c-12.2-12.2-32-12.2-44.3,0h0c-12.2,12.2-12.2,32,0,44.3l22.1,22.1,22.1-22.1c12.2-12.2,12.2-32,0-44.3h.1Z"/>
                  <path class="st14" d="M831.8,730.6l.4.4,19.2,19.2,18.9-18.9c.3-.6.4-1.1.4-1.7,0-2.1-1.6-4.2-3.7-4.5-1.8-.3-3.7.6-5,1.8s-2.3,2.9-3.4,4.4c-1.7,2.4-3.6,4.6-6.2,6.1-2.5,1.5-5.6,2.1-8.4,1.2-3.8-1.3-6.1-5.1-9.5-7.3-.8-.5-1.8-.9-2.8-.8h0Z"/>
                  <g class="st59">
                    <path class="st7" d="M851.3,755.7l-22.9-22.9c-6.1-6.1-9.5-14.3-9.5-22.9s3.4-16.8,9.5-22.9,14.3-9.5,22.9-9.5,16.8,3.4,22.9,9.5l-.5.5.5-.5c6.1,6.1,9.5,14.3,9.5,22.9s-3.4,16.8-9.5,22.9l-22.9,22.9ZM851.3,678.8c-8.3,0-16.1,3.2-21.9,9.1-12.1,12.1-12.1,31.7,0,43.8l21.9,21.9,21.9-21.9c12.1-12.1,12.1-31.7,0-43.8s-13.6-9.1-21.9-9.1Z"/>
                  </g>
                  <path class="st20" d="M878.6,709.3c0,1.1,0,2.2-.2,3.3-1.3-3.4-3.6-6.4-6.6-8.4-6.1-4-14.7-3.7-20.5.8-3.3,2.5-5.5,6.1-8.3,9.1-2.7,2.9-6.4,5.6-10.6,5.3-3.4-.3-6.5-2.7-7.9-5.9-3.3-7.2,1.3-17.2,6.2-22.7,5.2-5.7,12.7-9,20.4-9,15.2,0,27.5,12.3,27.5,27.5h0Z"/>
                </g>
                <circle class="st35" cx="825.5" cy="692.9" r="12.6"/>
              </g>
            </g>
            <g>
              <g>
                <g>
                  <path class="st54" d="M245.3,993.7v-.5h.8c0-2.3-.5-4.5-1.2-6.5h.4c-.3-.8-.6-1.5-.9-2.2h-.2c-1.1-2.3-2.7-4.5-4.6-6.2h-1.2c-1-.9-2.1-1.8-3.3-2.5h1.1c-3.2-1.9-6.9-3.1-10.9-3.1s-7.7,1.1-10.9,3.1h-1.1c-1.2.7-2.3,1.6-3.3,2.5h1.2c-1.9,1.8-3.5,3.9-4.6,6.2-.3.7-.7,1.5-.9,2.2h-.2c-.7,2-1.1,4.2-1.2,6.5h-.8v.5c0,1.6.2,3.2.5,4.7h.8c0,.3.2.7.3,1,.6,2.1,1.5,4,2.6,5.7h-.8c1.6,2.5,3.8,4.6,6.3,6.2h.7c3.3,2.1,7.1,3.3,11.3,3.3s8-1.2,11.3-3.3h-.7c2.5-1.6,4.7-3.7,6.3-6.2h.8c1.1-1.7,2-3.7,2.6-5.7,0-.3.2-.7.3-1h-.8c.3-1.5.5-3.1.5-4.7h-.2ZM231.8,986.7h-.4l-1,.7,4.1,2.7c.3.2.4.7.2,1-.1.2-.4.3-.6.3s-.3,0-.4,0l-4.9-3.3c-.2,0-.3-.3-.3-.6s.1-.5.3-.6l.2-.2,3.1-2.2h.2l1.6-1.2c.3-.2.8-.2,1,.2.2.3.2.8-.2,1h.2l-3.1,2.2h0ZM215,986.7c0-.9.3-1.6.7-2.2.5-.7,1.1-1.1,1.8-1.1s1.4.4,1.8,1.1h-.2c.4.6.7,1.4.7,2.2v.3c0,2-1.1,3.6-2.5,3.6s-2.5-1.6-2.5-3.6v-.3h.2Z"/>
                  <path class="st54" d="M242,992.4v-.5h.8c0-2.3-.5-4.5-1.2-6.5h.4c-.3-.8-.6-1.5-.9-2.2h-.2c-1.1-2.3-2.7-4.5-4.6-6.2h-1.2c-1-.9-2.1-1.8-3.3-2.5h1.1c-3.2-1.9-6.9-3.1-10.9-3.1s-7.7,1.1-10.9,3.1h-1.1c-1.2.7-2.3,1.6-3.3,2.5h1.2c-1.9,1.8-3.5,3.9-4.6,6.2-.3.7-.7,1.5-.9,2.2h-.2c-.7,2-1.1,4.2-1.2,6.5h-.8v.5c0,1.6.2,3.2.5,4.7h.8c0,.3.2.7.3,1,.6,2.1,1.5,4,2.6,5.7h-.8c1.6,2.5,3.8,4.6,6.3,6.2h.7c3.3,2.1,7.1,3.3,11.3,3.3s8-1.2,11.3-3.3h-.7c2.5-1.6,4.7-3.7,6.3-6.2h.8c1.1-1.7,2-3.7,2.6-5.7,0-.3.2-.7.3-1h-.8c.3-1.5.5-3.1.5-4.7h-.2ZM228.5,985.4h-.4l-1,.7,4.1,2.7c.3.2.4.7.2,1-.1.2-.4.3-.6.3s-.3,0-.4,0l-4.9-3.3c-.2,0-.3-.3-.3-.6s.1-.5.3-.6l.2-.2,3.1-2.2h.2l1.6-1.2c.3-.2.8-.2,1,.2.2.3.2.8-.2,1h.2l-3.1,2.2h0ZM226.2,1003.9c-1.7.4-3.4.7-5.1.7s-3.5-.2-5.1-.7h.8c-1.2-.3-2.3-.7-3.3-1.2-.5-.3-.8-.9-.5-1.4s.9-.8,1.4-.5c2.3,1.1,5,1.7,7.6,1.7s5.3-.6,7.6-1.7c.5-.3,1.2,0,1.4.5s0,1.2-.5,1.4c-1.1.5-2.2.9-3.3,1.2h-1Z"/>
                </g>
                <path class="st55" d="M243.5,992.9v-.5h.8c0-2.3-.5-4.5-1.2-6.5h.4c-.3-.8-.6-1.5-.9-2.2h-.2c-1.1-2.3-2.7-4.5-4.6-6.2h-1.2c-1-.9-2.1-1.8-3.3-2.5h1.1c-3.2-1.9-6.9-3.1-10.9-3.1s-7.7,1.1-10.9,3.1h-1.1c-1.2.7-2.3,1.6-3.3,2.5h1.2c-1.9,1.8-3.5,3.9-4.6,6.2-.3.7-.7,1.5-.9,2.2h-.2c-.7,2-1.1,4.2-1.2,6.5h-.8v.5c0,1.6.2,3.2.5,4.7h.8c0,.3.2.7.3,1,.6,2.1,1.5,4,2.6,5.7h-.8c1.6,2.5,3.8,4.6,6.3,6.2h.7c3.3,2.1,7.1,3.3,11.3,3.3s8-1.2,11.3-3.3h-.7c2.5-1.6,4.7-3.7,6.3-6.2h.8c1.1-1.7,2-3.7,2.6-5.7,0-.3.2-.7.3-1h-.8c.3-1.5.5-3.1.5-4.7h-.2ZM229.9,985.9h-.4l-1,.7,4.1,2.7c.3.2.4.7.2,1-.1.2-.4.3-.6.3s-.3,0-.4,0l-4.9-3.3c-.2,0-.3-.3-.3-.6s.1-.5.3-.6l.2-.2,3.1-2.2h.2l1.6-1.2c.3-.2.8-.2,1,.2.2.3.2.8-.2,1h.2l-3.1,2.2h0ZM213.2,985.9c0-.9.3-1.6.7-2.2.5-.7,1.1-1.1,1.8-1.1s1.4.4,1.8,1.1h-.2c.4.6.7,1.4.7,2.2v.3c0,2-1.1,3.6-2.5,3.6s-2.5-1.6-2.5-3.6v-.3h.2ZM227.6,1004.4c-1.7.4-3.4.7-5.1.7s-3.5-.2-5.1-.7h.8c-1.2-.3-2.3-.7-3.3-1.2-.5-.3-.8-.9-.5-1.4s.9-.8,1.4-.5c2.3,1.1,5,1.7,7.6,1.7s5.3-.6,7.6-1.7c.5-.3,1.2,0,1.4.5s0,1.2-.5,1.4c-1.1.5-2.2.9-3.3,1.2h-1Z"/>
              </g>
              <g>
                <g>
                  <path class="st34" d="M245.5,970.1h0c-12.2-12.2-32-12.2-44.3,0h0c-12.2,12.2-12.2,32,0,44.3l22.1,22.1,22.1-22.1c12.2-12.2,12.2-32,0-44.3h0Z"/>
                  <path class="st27" d="M203.9,1013c.1,0,.3.3.4.4l19.2,19.2,18.9-18.9c.3-.6.4-1.1.4-1.7,0-2.1-1.6-4.2-3.7-4.5-1.8-.3-3.7.6-5,1.8-1.4,1.3-2.3,2.9-3.4,4.4-1.7,2.4-3.6,4.6-6.2,6.1-2.5,1.5-5.6,2.1-8.4,1.2-3.8-1.3-6.1-5.1-9.5-7.3-.8-.5-1.8-.9-2.8-.8h.1Z"/>
                  <g class="st59">
                    <path class="st17" d="M223.3,1038.1l-22.9-22.9c-6.1-6.1-9.5-14.3-9.5-22.9s3.4-16.8,9.5-22.9c6.1-6.1,14.3-9.5,22.9-9.5s16.8,3.4,22.9,9.5l-.5.5.5-.5c6.1,6.1,9.5,14.3,9.5,22.9s-3.4,16.8-9.5,22.9l-22.9,22.9ZM223.3,961.2c-8.3,0-16.1,3.2-21.9,9.1-12.1,12.1-12.1,31.7,0,43.8l21.9,21.9,21.9-21.9c12.1-12.1,12.1-31.7,0-43.8-5.8-5.8-13.6-9.1-21.9-9.1Z"/>
                  </g>
                  <path class="st33" d="M250.7,991.7c0,1.1,0,2.2-.2,3.3-1.3-3.4-3.6-6.4-6.6-8.4-6.1-4-14.7-3.7-20.5.8-3.3,2.5-5.5,6.1-8.3,9.1-2.7,2.9-6.4,5.6-10.6,5.3-3.4-.3-6.5-2.7-7.9-5.9-3.3-7.2,1.3-17.2,6.2-22.7,5.2-5.7,12.7-9,20.4-9,15.2,0,27.5,12.3,27.5,27.5h0Z"/>
                </g>
                <circle class="st26" cx="197.6" cy="975.3" r="12.6"/>
              </g>
            </g>
            <g>
              <g>
                <g>
                  <g>
                    <path class="st54" d="M1167.1,961.5h0c-2.4-1-4.4-1-4.4-1,0,0-1.9,0-4.4,1h0c-2,.8-4.3,2.3-6.1,5,.3.2.5.4.8.6h-.3c2.3,1.6,5.4,2.8,9.6,2.8s7.3-1.1,9.6-2.8h.3c.3-.2.5-.4.8-.6-1.8-2.7-4.1-4.2-6.1-5h.2Z"/>
                    <path class="st54" d="M1183.7,956.3v-1.1h.2v-.4c0-1.6-.2-3.1-.5-4.6h-.5c0-.5-.3-1-.4-1.6h.6c-.6-2.1-1.6-4-2.7-5.8h.4c-1-1.5-2.2-2.9-3.6-4.1h-.7c-.5-.4-1-.8-1.5-1.2h.5c-2.2-1.6-4.6-2.8-7.3-3.5h-1.1c-1.7-.4-3.5-.7-5.3-.7s-3.6.2-5.3.7h1.1c-2.7.7-5.1,1.9-7.3,3.5h-.5c-.5.4-1,.8-1.5,1.2h.7c-1.4,1.2-2.6,2.6-3.6,4.1h-.4c-1.2,1.8-2.1,3.7-2.7,5.8h-.6c-.2.5-.3,1-.4,1.6h.5c-.3,1.5-.5,3-.5,4.6v.4h-.2v1.1h.5c0,1.8.5,3.5,1,5.2h0c.6,2,1.6,3.9,2.8,5.6h-.3c.7,1.1,1.6,2.1,2.5,3h-.2c2,2,4.4,3.6,7,4.7h.7c2.5,1,5.2,1.6,8,1.6s5.5-.6,8-1.6h-.7c2.7-1.1,5-2.7,7-4.7h.2c.9-.9,1.7-1.9,2.5-3h.3c1.2-1.7,2.1-3.6,2.8-5.6h0c.5-1.6.9-3.4,1-5.2h-.5ZM1170.1,950.3h.5l1.4,1c.3.2.4.7.2,1,0,.2-.4.3-.6.3s-.3,0-.4,0l-3.2-2.2h-.5l-1.8-1.2c0,0-.2-.2-.3-.4h.6v-.2c0-.2,0-.5.3-.6l5-3.6c.3-.2.8-.2,1,.2.2.3.2.8-.2,1l-4.2,3,.4.3h-.6l2.3,1.6h0ZM1156.4,948.8h.6l.4-.3-4.2-3c-.3-.2-.4-.7-.2-1s.7-.4,1-.2l5,3.6c.2,0,.3.4.3.6v.2h-.6c0,.2,0,.3-.3.4l-1.8,1.2h.5l-3.2,2.2c0,0-.3,0-.4,0-.2,0-.5,0-.6-.3-.2-.3,0-.8.2-1l1.4-1h-.5l2.3-1.6h0Z"/>
                  </g>
                  <g>
                    <path class="st54" d="M1164.1,960.4h0c-2.4-1-4.4-1-4.4-1,0,0-1.9,0-4.4,1h0c-2,.8-4.3,2.3-6.1,5,.3.2.5.4.8.6h-.3c2.3,1.6,5.4,2.8,9.6,2.8s7.3-1.1,9.6-2.8h.3c.3-.2.5-.4.8-.6-1.8-2.7-4.1-4.2-6.1-5h.2Z"/>
                    <path class="st54" d="M1180.7,955.3v-1.1h.2v-.4c0-1.6-.2-3.1-.5-4.6h-.5c0-.5-.3-1-.4-1.6h.6c-.6-2.1-1.6-4-2.7-5.8h.4c-1-1.5-2.2-2.9-3.6-4.1h-.7c-.5-.4-1-.8-1.5-1.2h.5c-2.2-1.6-4.6-2.8-7.3-3.5h-1.1c-1.7-.4-3.5-.7-5.3-.7s-3.6.2-5.3.7h1.1c-2.7.7-5.1,1.9-7.3,3.5h-.5c-.5.4-1,.8-1.5,1.2h.7c-1.4,1.2-2.6,2.6-3.6,4.1h-.4c-1.2,1.8-2.1,3.7-2.7,5.8h-.6c-.2.5-.3,1-.4,1.6h.5c-.3,1.5-.5,3-.5,4.6v.4h-.2v1.1h.5c0,1.8.5,3.5,1,5.2h0c.6,2,1.6,3.9,2.8,5.6h-.3c.7,1.1,1.6,2.1,2.5,3h-.2c2,2,4.4,3.6,7,4.7h.7c2.5,1,5.2,1.6,8,1.6s5.5-.6,8-1.6h-.7c2.7-1.1,5-2.7,7-4.7h.2c.9-.9,1.7-1.9,2.5-3h.3c1.2-1.7,2.1-3.6,2.8-5.6h0c.5-1.6.9-3.4,1-5.2h-.5ZM1174.6,960.4c-.7,1.7-1.9,3.8-3.9,5.6h-.3c-1.4,1.2-3.1,2.3-5.2,3h-.2c-1.7.5-3.6.8-5.8.8s-4.1-.3-5.8-.8h.2c-2.2-.7-3.9-1.8-5.2-3h.3c-2-1.8-3.2-3.9-3.9-5.6h0c-.8-1.9-1-3.2-1-3.2h31.8s-.2,1.4-1,3.2h-.2,0Z"/>
                  </g>
                </g>
                <g>
                  <path class="st55" d="M1165.6,960.9h0c-2.4-1-4.4-1-4.4-1,0,0-1.9,0-4.4,1h0c-2,.8-4.3,2.3-6.1,5,.3.2.5.4.8.6h-.3c2.3,1.6,5.4,2.8,9.6,2.8s7.3-1.1,9.6-2.8h.3c.3-.2.5-.4.8-.6-1.8-2.7-4.1-4.2-6.1-5h.2Z"/>
                  <path class="st55" d="M1182.2,955.8v-1.1h.2v-.4c0-1.6-.2-3.1-.5-4.6h-.5c0-.5-.3-1-.4-1.6h.6c-.6-2.1-1.6-4-2.7-5.8h.4c-1-1.5-2.2-2.9-3.6-4.1h-.7c-.5-.4-1-.8-1.5-1.2h.5c-2.2-1.6-4.6-2.8-7.3-3.5h-1.1c-1.7-.4-3.5-.7-5.3-.7s-3.6.2-5.3.7h1.1c-2.7.7-5.1,1.9-7.3,3.5h-.5c-.5.4-1,.8-1.5,1.2h.7c-1.4,1.2-2.6,2.6-3.6,4.1h-.4c-1.2,1.8-2.1,3.7-2.7,5.8h-.6c-.2.5-.3,1-.4,1.6h.5c-.3,1.5-.5,3-.5,4.6v.4h-.2v1.1h.5c0,1.8.5,3.5,1,5.2h0c.6,2,1.6,3.9,2.8,5.6h-.3c.7,1.1,1.6,2.1,2.5,3h-.2c2,2,4.4,3.6,7,4.7h.7c2.5,1,5.2,1.6,8,1.6s5.5-.6,8-1.6h-.7c2.7-1.1,5-2.7,7-4.7h.2c.9-.9,1.7-1.9,2.5-3h.3c1.2-1.7,2.1-3.6,2.8-5.6h0c.5-1.6.9-3.4,1-5.2h-.5ZM1168.6,949.8h.5l1.4,1c.3.2.4.7.2,1,0,.2-.4.3-.6.3s-.3,0-.4,0l-3.2-2.2h-.5l-1.8-1.2c0,0-.2-.2-.3-.4h.6v-.2c0-.2,0-.5.3-.6l5-3.6c.3-.2.8-.2,1,.2.2.3.2.8-.2,1l-4.2,3,.4.3h-.6l2.3,1.6h0ZM1154.9,948.2h.6l.4-.3-4.2-3c-.3-.2-.4-.7-.2-1s.7-.4,1-.2l5,3.6c.2,0,.3.4.3.6v.2h-.6c0,.2,0,.3-.3.4l-1.8,1.2h.5l-3.2,2.2c0,0-.3,0-.4,0-.2,0-.5,0-.6-.3-.2-.3,0-.8.2-1l1.4-1h-.5l2.3-1.6h0ZM1176.1,960.9c-.7,1.7-1.9,3.8-3.9,5.6h-.3c-1.4,1.2-3.1,2.3-5.2,3h-.2c-1.7.5-3.6.8-5.8.8s-4.1-.3-5.8-.8h.2c-2.2-.7-3.9-1.8-5.2-3h.3c-2-1.8-3.2-3.9-3.9-5.6h0c-.8-1.9-1-3.2-1-3.2h31.8s-.2,1.4-1,3.2h-.2,0Z"/>
                </g>
              </g>
              <g>
                <g>
                  <path class="st4" d="M1183.2,932.5h0c-12.2-12.2-32-12.2-44.3,0h0c-12.2,12.2-12.2,32,0,44.3l22.1,22.1,22.1-22.1c12.2-12.2,12.2-32,0-44.3h.1Z"/>
                  <path class="st1" d="M1141.6,975.4c0,0,.3.3.4.4l19.2,19.2,18.9-18.9c.3-.6.4-1.1.4-1.7,0-2.1-1.6-4.2-3.7-4.5-1.8-.3-3.7.6-5,1.8s-2.3,2.9-3.4,4.4c-1.7,2.4-3.6,4.6-6.2,6.1-2.5,1.5-5.6,2.1-8.4,1.2-3.8-1.3-6.1-5.1-9.5-7.3-.8-.5-1.8-.9-2.8-.8h0Z"/>
                  <g class="st59">
                    <path class="st5" d="M1161.1,1000.5l-22.9-22.9c-6.1-6.1-9.5-14.3-9.5-22.9s3.4-16.8,9.5-22.9c6.1-6.1,14.3-9.5,22.9-9.5s16.8,3.4,22.9,9.5l-.5.5.5-.5c6.1,6.1,9.5,14.3,9.5,22.9s-3.4,16.8-9.5,22.9l-22.9,22.9ZM1161.1,923.6c-8.3,0-16.1,3.2-21.9,9.1-12.1,12.1-12.1,31.7,0,43.8l21.9,21.9,21.9-21.9c12.1-12.1,12.1-31.7,0-43.8-5.8-5.8-13.6-9.1-21.9-9.1Z"/>
                  </g>
                  <path class="st9" d="M1188.4,954.1c0,1.1,0,2.2-.2,3.3-1.3-3.4-3.6-6.4-6.6-8.4-6.1-4-14.7-3.7-20.5.8-3.3,2.5-5.5,6.1-8.3,9.1-2.7,2.9-6.4,5.6-10.6,5.3-3.4-.3-6.5-2.7-7.9-5.9-3.3-7.2,1.3-17.2,6.2-22.7,5.2-5.7,12.7-9,20.4-9,15.2,0,27.5,12.3,27.5,27.5h0Z"/>
                </g>
                <circle class="st2" cx="1135.3" cy="937.7" r="12.6"/>
              </g>
            </g>
            <g class="st19">
              <g class="st19">
                <text class="st31" transform="translate(509 1063.3) rotate(-90)"><tspan x="0" y="0">YOUNG GENERATION</tspan></text>
              </g>
            </g>
            <g class="st19">
              <g class="st19">
                <text class="st32" transform="translate(286.3 1072.8) rotate(-90)"><tspan x="0" y="0">YOUNG GENERATION</tspan></text>
              </g>
            </g>
            <g class="st19">
              <g class="st19">
                <text class="st25" transform="translate(835.7 1069.5) rotate(-90)"><tspan x="0" y="0">YOUNG GENERATION</tspan></text>
              </g>
            </g>
            <g class="st53">
              <g class="st56">
                <g>
                  <polyline class="st47" points=".8 797.9 159.9 797.9 159.9 1188.8 298.9 1188.8 298.9 968.7 406.1 968.7 406.1 1188.8 524.8 1188.8 524.8 797.9 695.7 797.9 695.7 1188.8 849.1 1188.8 849.1 884.8 1157.5 1193.2 1467.4 883.3 1782.3 1198.2 1876.7 1103.8"/>
                  <polyline class="st41" points=".8 788.9 159.9 788.9 159.9 1179.8 298.9 1179.8 298.9 959.8 406.1 959.8 406.1 1179.8 524.8 1179.8 524.8 788.9 695.7 788.9 695.7 1179.8 849.1 1179.8 849.1 875.8 1157.5 1184.2 1467.4 874.3 1782.3 1189.2 1876.7 1094.8"/>
                  <polyline class="st41" points=".8 779.9 159.9 779.9 159.9 1170.8 298.9 1170.8 298.9 950.8 406.1 950.8 406.1 1170.8 524.8 1170.8 524.8 779.9 695.7 779.9 695.7 1170.8 849.1 1170.8 849.1 866.8 1157.5 1175.2 1467.4 865.3 1782.3 1180.3 1876.7 1085.8"/>
                  <polyline class="st44" points=".8 770.9 159.9 770.9 159.9 1161.9 298.9 1161.9 298.9 941.8 406.1 941.8 406.1 1161.9 524.8 1161.9 524.8 770.9 695.7 770.9 695.7 1161.9 849.1 1161.9 849.1 857.8 1157.5 1166.2 1467.4 856.4 1782.3 1171.3 1876.7 1076.9"/>
                  <polyline class="st44" points=".8 761.9 159.9 761.9 159.9 1152.9 298.9 1152.9 298.9 932.8 406.1 932.8 406.1 1152.9 524.8 1152.9 524.8 761.9 695.7 761.9 695.7 1152.9 849.1 1152.9 849.1 848.8 1157.5 1157.2 1467.4 847.4 1782.3 1162.3 1876.7 1067.9"/>
                  <polyline class="st46" points=".8 752.9 159.9 752.9 159.9 1143.9 298.9 1143.9 298.9 923.8 406.1 923.8 406.1 1143.9 524.8 1143.9 524.8 752.9 695.7 752.9 695.7 1143.9 849.1 1143.9 849.1 839.8 1157.5 1148.2 1467.4 838.4 1782.3 1153.3 1876.7 1058.9"/>
                  <polyline class="st46" points=".8 744 159.9 744 159.9 1134.9 298.9 1134.9 298.9 914.8 406.1 914.8 406.1 1134.9 524.8 1134.9 524.8 744 695.7 744 695.7 1134.9 849.1 1134.9 849.1 830.8 1157.5 1139.2 1467.4 829.4 1782.3 1144.3 1876.7 1049.9"/>
                  <polyline class="st46" points=".8 735 159.9 735 159.9 1125.9 298.9 1125.9 298.9 905.8 406.1 905.8 406.1 1125.9 524.8 1125.9 524.8 735 695.7 735 695.7 1125.9 849.1 1125.9 849.1 821.8 1157.5 1130.2 1467.4 820.4 1782.3 1135.3 1876.7 1040.9"/>
                  <polyline class="st45" points=".8 726 159.9 726 159.9 1116.9 298.9 1116.9 298.9 896.8 406.1 896.8 406.1 1116.9 524.8 1116.9 524.8 726 695.7 726 695.7 1116.9 849.1 1116.9 849.1 812.8 1157.5 1121.3 1467.4 811.4 1782.3 1126.3 1876.7 1031.9"/>
                  <polyline class="st45" points=".8 717 159.9 717 159.9 1107.9 298.9 1107.9 298.9 887.8 406.1 887.8 406.1 1107.9 524.8 1107.9 524.8 717 695.7 717 695.7 1107.9 849.1 1107.9 849.1 803.9 1157.5 1112.3 1467.4 802.4 1782.3 1117.3 1876.7 1022.9"/>
                  <polyline class="st49" points=".8 708 159.9 708 159.9 1098.9 298.9 1098.9 298.9 878.9 406.1 878.9 406.1 1098.9 524.8 1098.9 524.8 708 695.7 708 695.7 1098.9 849.1 1098.9 849.1 794.9 1157.5 1103.3 1467.4 793.4 1782.3 1108.3 1876.7 1013.9"/>
                  <polyline class="st49" points=".8 699 159.9 699 159.9 1089.9 298.9 1089.9 298.9 869.9 406.1 869.9 406.1 1089.9 524.8 1089.9 524.8 699 695.7 699 695.7 1089.9 849.1 1089.9 849.1 785.9 1157.5 1094.3 1467.4 784.4 1782.3 1099.4 1876.7 1004.9"/>
                  <polyline class="st40" points=".8 690 159.9 690 159.9 1081 298.9 1081 298.9 860.9 406.1 860.9 406.1 1081 524.8 1081 524.8 690 695.7 690 695.7 1081 849.1 1081 849.1 776.9 1157.5 1085.3 1467.4 775.5 1782.3 1090.4 1876.7 996"/>
                  <polyline class="st40" points=".8 712.1 159.9 712.1 159.9 1103.1 298.9 1103.1 298.9 883 406.1 883 406.1 1103.1 524.8 1103.1 524.8 712.1 695.7 712.1 695.7 1103.1 849.1 1103.1 849.1 799 1157.5 1107.4 1467.4 797.6 1782.3 1112.5 1876.7 1018.1"/>
                  <polyline class="st52" points=".8 734.2 159.9 734.2 159.9 1125.2 298.9 1125.2 298.9 905.1 406.1 905.1 406.1 1125.2 524.8 1125.2 524.8 734.2 695.7 734.2 695.7 1125.2 849.1 1125.2 849.1 821.1 1157.5 1129.5 1467.4 819.7 1782.3 1134.6 1876.7 1040.2"/>
                  <polyline class="st52" points=".8 756.3 159.9 756.3 159.9 1147.3 298.9 1147.3 298.9 927.2 406.1 927.2 406.1 1147.3 524.8 1147.3 524.8 756.3 695.7 756.3 695.7 1147.3 849.1 1147.3 849.1 843.2 1157.5 1151.6 1467.4 841.8 1782.3 1156.7 1876.7 1062.3"/>
                  <polyline class="st43" points=".8 778.5 159.9 778.5 159.9 1169.4 298.9 1169.4 298.9 949.3 406.1 949.3 406.1 1169.4 524.8 1169.4 524.8 778.5 695.7 778.5 695.7 1169.4 849.1 1169.4 849.1 865.3 1157.5 1173.7 1467.4 863.9 1782.3 1178.8 1876.7 1084.4"/>
                  <polyline class="st43" points=".8 800.6 159.9 800.6 159.9 1191.5 298.9 1191.5 298.9 971.4 406.1 971.4 406.1 1191.5 524.8 1191.5 524.8 800.6 695.7 800.6 695.7 1191.5 849.1 1191.5 849.1 887.4 1157.5 1195.9 1467.4 886 1782.3 1200.9 1876.7 1106.5"/>
                  <polyline class="st43" points=".8 822.7 159.9 822.7 159.9 1213.6 298.9 1213.6 298.9 993.5 406.1 993.5 406.1 1213.6 524.8 1213.6 524.8 822.7 695.7 822.7 695.7 1213.6 849.1 1213.6 849.1 909.6 1157.5 1218 1467.4 908.1 1782.3 1223 1876.7 1128.6"/>
                  <polyline class="st48" points=".8 844.8 159.9 844.8 159.9 1235.7 298.9 1235.7 298.9 1015.6 406.1 1015.6 406.1 1235.7 524.8 1235.7 524.8 844.8 695.7 844.8 695.7 1235.7 849.1 1235.7 849.1 931.7 1157.5 1240.1 1467.4 930.2 1782.3 1245.1 1876.7 1150.7"/>
                  <polyline class="st48" points=".8 866.9 159.9 866.9 159.9 1257.8 298.9 1257.8 298.9 1037.8 406.1 1037.8 406.1 1257.8 524.8 1257.8 524.8 866.9 695.7 866.9 695.7 1257.8 849.1 1257.8 849.1 953.8 1157.5 1262.2 1467.4 952.3 1782.3 1267.2 1876.7 1172.8"/>
                  <polyline class="st51" points=".8 889 159.9 889 159.9 1280 298.9 1280 298.9 1059.9 406.1 1059.9 406.1 1280 524.8 1280 524.8 889 695.7 889 695.7 1280 849.1 1280 849.1 975.9 1157.5 1284.3 1467.4 974.4 1782.3 1289.4 1876.7 1194.9"/>
                  <polyline class="st51" points=".8 911.1 159.9 911.1 159.9 1302.1 298.9 1302.1 298.9 1082 406.1 1082 406.1 1302.1 524.8 1302.1 524.8 911.1 695.7 911.1 695.7 1302.1 849.1 1302.1 849.1 998 1157.5 1306.4 1467.4 996.6 1782.3 1311.5 1876.7 1217.1"/>
                  <polyline class="st50" points=".8 933.2 159.9 933.2 159.9 1324.2 298.9 1324.2 298.9 1104.1 406.1 1104.1 406.1 1324.2 524.8 1324.2 524.8 933.2 695.7 933.2 695.7 1324.2 849.1 1324.2 849.1 1020.1 1157.5 1328.5 1467.4 1018.7 1782.3 1333.6 1876.7 1239.2"/>
                  <polyline class="st50" points=".8 955.4 159.9 955.4 159.9 1346.3 298.9 1346.3 298.9 1126.2 406.1 1126.2 406.1 1346.3 524.8 1346.3 524.8 955.4 695.7 955.4 695.7 1346.3 849.1 1346.3 849.1 1042.2 1157.5 1350.6 1467.4 1040.8 1782.3 1355.7 1876.7 1261.3"/>
                </g>
              </g>
            </g>
          </g>
        </g>
        <g class="st19">
          <g id="Layer_12">
            <g class="st19">
              <g class="st19">
                <text class="st31" transform="translate(1790.8 1063.3) rotate(-90)"><tspan x="0" y="0">YOUNG GENERATION</tspan></text>
              </g>
            </g>
            <g class="st19">
              <g class="st19">
                <text class="st32" transform="translate(1568 1072.8) rotate(-90)"><tspan x="0" y="0">YOUNG GENERATION</tspan></text>
              </g>
            </g>
            <g class="st19">
              <g class="st19">
                <text class="st13" transform="translate(1265.9 957.7) rotate(-90)"><tspan x="0" y="0">YOUNG GENERATION</tspan></text>
              </g>
            </g>
            <g class="st58">
              <g class="st56">
                <g>
                  <polyline class="st47" points="1282.6 797.9 1441.7 797.9 1441.7 1188.8 1580.7 1188.8 1580.7 968.7 1687.8 968.7 1687.8 1188.8 1806.6 1188.8 1806.6 797.9 1977.4 797.9 1977.4 1188.8 2130.9 1188.8 2130.9 884.8 2439.3 1193.2 2749.2 883.3 3064.1 1198.2 3158.5 1103.8"/>
                  <polyline class="st41" points="1282.6 788.9 1441.7 788.9 1441.7 1179.8 1580.7 1179.8 1580.7 959.8 1687.8 959.8 1687.8 1179.8 1806.6 1179.8 1806.6 788.9 1977.4 788.9 1977.4 1179.8 2130.9 1179.8 2130.9 875.8 2439.3 1184.2 2749.2 874.3 3064.1 1189.2 3158.5 1094.8"/>
                  <polyline class="st41" points="1282.6 779.9 1441.7 779.9 1441.7 1170.8 1580.7 1170.8 1580.7 950.8 1687.8 950.8 1687.8 1170.8 1806.6 1170.8 1806.6 779.9 1977.4 779.9 1977.4 1170.8 2130.9 1170.8 2130.9 866.8 2439.3 1175.2 2749.2 865.3 3064.1 1180.3 3158.5 1085.8"/>
                  <polyline class="st44" points="1282.6 770.9 1441.7 770.9 1441.7 1161.9 1580.7 1161.9 1580.7 941.8 1687.8 941.8 1687.8 1161.9 1806.6 1161.9 1806.6 770.9 1977.4 770.9 1977.4 1161.9 2130.9 1161.9 2130.9 857.8 2439.3 1166.2 2749.2 856.4 3064.1 1171.3 3158.5 1076.9"/>
                  <polyline class="st44" points="1282.6 761.9 1441.7 761.9 1441.7 1152.9 1580.7 1152.9 1580.7 932.8 1687.8 932.8 1687.8 1152.9 1806.6 1152.9 1806.6 761.9 1977.4 761.9 1977.4 1152.9 2130.9 1152.9 2130.9 848.8 2439.3 1157.2 2749.2 847.4 3064.1 1162.3 3158.5 1067.9"/>
                  <polyline class="st46" points="1282.6 752.9 1441.7 752.9 1441.7 1143.9 1580.7 1143.9 1580.7 923.8 1687.8 923.8 1687.8 1143.9 1806.6 1143.9 1806.6 752.9 1977.4 752.9 1977.4 1143.9 2130.9 1143.9 2130.9 839.8 2439.3 1148.2 2749.2 838.4 3064.1 1153.3 3158.5 1058.9"/>
                  <polyline class="st46" points="1282.6 744 1441.7 744 1441.7 1134.9 1580.7 1134.9 1580.7 914.8 1687.8 914.8 1687.8 1134.9 1806.6 1134.9 1806.6 744 1977.4 744 1977.4 1134.9 2130.9 1134.9 2130.9 830.8 2439.3 1139.2 2749.2 829.4 3064.1 1144.3 3158.5 1049.9"/>
                  <polyline class="st46" points="1282.6 735 1441.7 735 1441.7 1125.9 1580.7 1125.9 1580.7 905.8 1687.8 905.8 1687.8 1125.9 1806.6 1125.9 1806.6 735 1977.4 735 1977.4 1125.9 2130.9 1125.9 2130.9 821.8 2439.3 1130.2 2749.2 820.4 3064.1 1135.3 3158.5 1040.9"/>
                  <polyline class="st45" points="1282.6 726 1441.7 726 1441.7 1116.9 1580.7 1116.9 1580.7 896.8 1687.8 896.8 1687.8 1116.9 1806.6 1116.9 1806.6 726 1977.4 726 1977.4 1116.9 2130.9 1116.9 2130.9 812.8 2439.3 1121.3 2749.2 811.4 3064.1 1126.3 3158.5 1031.9"/>
                  <polyline class="st45" points="1282.6 717 1441.7 717 1441.7 1107.9 1580.7 1107.9 1580.7 887.8 1687.8 887.8 1687.8 1107.9 1806.6 1107.9 1806.6 717 1977.4 717 1977.4 1107.9 2130.9 1107.9 2130.9 803.9 2439.3 1112.3 2749.2 802.4 3064.1 1117.3 3158.5 1022.9"/>
                  <polyline class="st49" points="1282.6 708 1441.7 708 1441.7 1098.9 1580.7 1098.9 1580.7 878.9 1687.8 878.9 1687.8 1098.9 1806.6 1098.9 1806.6 708 1977.4 708 1977.4 1098.9 2130.9 1098.9 2130.9 794.9 2439.3 1103.3 2749.2 793.4 3064.1 1108.3 3158.5 1013.9"/>
                  <polyline class="st49" points="1282.6 699 1441.7 699 1441.7 1089.9 1580.7 1089.9 1580.7 869.9 1687.8 869.9 1687.8 1089.9 1806.6 1089.9 1806.6 699 1977.4 699 1977.4 1089.9 2130.9 1089.9 2130.9 785.9 2439.3 1094.3 2749.2 784.4 3064.1 1099.4 3158.5 1004.9"/>
                  <polyline class="st50" points="1282.6 1301.9 1282.6 690 1441.7 690 1441.7 1081 1580.7 1081 1580.7 860.9 1687.8 860.9 1687.8 1081 1806.6 1081 1806.6 690 1977.4 690 1977.4 1081 2130.9 1081 2130.9 776.9 2439.3 1085.3 2749.2 775.5 3064.1 1090.4 3158.5 996"/>
                  <polyline class="st40" points="1282.6 712.1 1441.7 712.1 1441.7 1103.1 1580.7 1103.1 1580.7 883 1687.8 883 1687.8 1103.1 1806.6 1103.1 1806.6 712.1 1977.4 712.1 1977.4 1103.1 2130.9 1103.1 2130.9 799 2439.3 1107.4 2749.2 797.6 3064.1 1112.5 3158.5 1018.1"/>
                  <polyline class="st52" points="1282.6 734.2 1441.7 734.2 1441.7 1125.2 1580.7 1125.2 1580.7 905.1 1687.8 905.1 1687.8 1125.2 1806.6 1125.2 1806.6 734.2 1977.4 734.2 1977.4 1125.2 2130.9 1125.2 2130.9 821.1 2439.3 1129.5 2749.2 819.7 3064.1 1134.6 3158.5 1040.2"/>
                  <polyline class="st52" points="1282.6 756.3 1441.7 756.3 1441.7 1147.3 1580.7 1147.3 1580.7 927.2 1687.8 927.2 1687.8 1147.3 1806.6 1147.3 1806.6 756.3 1977.4 756.3 1977.4 1147.3 2130.9 1147.3 2130.9 843.2 2439.3 1151.6 2749.2 841.8 3064.1 1156.7 3158.5 1062.3"/>
                  <polyline class="st43" points="1282.6 778.5 1441.7 778.5 1441.7 1169.4 1580.7 1169.4 1580.7 949.3 1687.8 949.3 1687.8 1169.4 1806.6 1169.4 1806.6 778.5 1977.4 778.5 1977.4 1169.4 2130.9 1169.4 2130.9 865.3 2439.3 1173.7 2749.2 863.9 3064.1 1178.8 3158.5 1084.4"/>
                  <polyline class="st43" points="1282.6 800.6 1441.7 800.6 1441.7 1191.5 1580.7 1191.5 1580.7 971.4 1687.8 971.4 1687.8 1191.5 1806.6 1191.5 1806.6 800.6 1977.4 800.6 1977.4 1191.5 2130.9 1191.5 2130.9 887.4 2439.3 1195.9 2749.2 886 3064.1 1200.9 3158.5 1106.5"/>
                  <polyline class="st43" points="1282.6 822.7 1441.7 822.7 1441.7 1213.6 1580.7 1213.6 1580.7 993.5 1687.8 993.5 1687.8 1213.6 1806.6 1213.6 1806.6 822.7 1977.4 822.7 1977.4 1213.6 2130.9 1213.6 2130.9 909.6 2439.3 1218 2749.2 908.1 3064.1 1223 3158.5 1128.6"/>
                  <polyline class="st48" points="1282.6 844.8 1441.7 844.8 1441.7 1235.7 1580.7 1235.7 1580.7 1015.6 1687.8 1015.6 1687.8 1235.7 1806.6 1235.7 1806.6 844.8 1977.4 844.8 1977.4 1235.7 2130.9 1235.7 2130.9 931.7 2439.3 1240.1 2749.2 930.2 3064.1 1245.1 3158.5 1150.7"/>
                  <polyline class="st48" points="1282.6 866.9 1441.7 866.9 1441.7 1257.8 1580.7 1257.8 1580.7 1037.8 1687.8 1037.8 1687.8 1257.8 1806.6 1257.8 1806.6 866.9 1977.4 866.9 1977.4 1257.8 2130.9 1257.8 2130.9 953.8 2439.3 1262.2 2749.2 952.3 3064.1 1267.2 3158.5 1172.8"/>
                  <polyline class="st51" points="1282.6 889 1441.7 889 1441.7 1280 1580.7 1280 1580.7 1059.9 1687.8 1059.9 1687.8 1280 1806.6 1280 1806.6 889 1977.4 889 1977.4 1280 2130.9 1280 2130.9 975.9 2439.3 1284.3 2749.2 974.4 3064.1 1289.4 3158.5 1194.9"/>
                  <polyline class="st51" points="1282.6 911.1 1441.7 911.1 1441.7 1302.1 1580.7 1302.1 1580.7 1082 1687.8 1082 1687.8 1302.1 1806.6 1302.1 1806.6 911.1 1977.4 911.1 1977.4 1302.1 2130.9 1302.1 2130.9 998 2439.3 1306.4 2749.2 996.6 3064.1 1311.5 3158.5 1217.1"/>
                  <polyline class="st50" points="1282.6 933.2 1441.7 933.2 1441.7 1324.2 1580.7 1324.2 1580.7 1104.1 1687.8 1104.1 1687.8 1324.2 1806.6 1324.2 1806.6 933.2 1977.4 933.2 1977.4 1324.2 2130.9 1324.2 2130.9 1020.1 2439.3 1328.5 2749.2 1018.7 3064.1 1333.6 3158.5 1239.2"/>
                  <polyline class="st50" points="1282.6 955.4 1441.7 955.4 1441.7 1346.3 1580.7 1346.3 1580.7 1126.2 1687.8 1126.2 1687.8 1346.3 1806.6 1346.3 1806.6 955.4 1977.4 955.4 1977.4 1346.3 2130.9 1346.3 2130.9 1042.2 2439.3 1350.6 2749.2 1040.8 3064.1 1355.7 3158.5 1261.3"/>
                </g>
              </g>
            </g>
          </g>
        </g>
        <g>
          <g>
            <g>
              <path class="st54" d="M1522.5,1002.4h.6c-.4-2-1.1-3.9-2-5.7-.6-1.1-1.2-2.1-1.9-3h-.6c-1.2-1.6-2.7-3.1-4.4-4.3-.6-.4-1.1-.8-1.7-1.1h1.1c-3.2-1.9-6.9-3-10.9-3h-1.1c-4,0-7.7,1.1-10.9,3-.6.3-1.2.7-1.7,1.1h-.6c-1.7,1.2-3.1,2.7-4.4,4.3h.6c-.7,1-1.4,2-1.9,3h.5c-.9,1.8-1.6,3.7-2,5.7h-.5c0,.6-.2,1.2-.3,1.8h-.2c0,.8,0,1.6,0,2.4,0,1.2,0,2.3.3,3.4h0c0,.8.3,1.6.5,2.4h.3c.6,2,1.4,3.9,2.5,5.6h.8c.2.4.5.8.8,1.1h-1.4c1.1,1.6,2.5,3,4,4.2h.3c2,1.6,4.2,2.8,6.6,3.6h.5c2.1.7,4.3,1.1,6.7,1.1s4.6-.4,6.7-1.1h-.5c2.4-.8,4.7-2,6.6-3.6h-.3c1.5-1.2,2.8-2.6,4-4.2h1.4c.3-.4.5-.7.8-1.1h-.8c1.1-1.7,1.9-3.6,2.5-5.6h-.3c.2-.8.4-1.6.5-2.4h0c.2-1.1.3-2.2.3-3.4s0-1.6,0-2.4h.2c0-.6-.2-1.2-.3-1.8h-.2ZM1510.6,1018h-1.3c-2.3-1.1-5.1-1.7-7.7-1.7s-5.4.6-7.7,1.7h.8c-.3,0-.6,0-.9,0h-.8c-.2,0-.4-.3-.5-.5-.3-.6,0-1.2.5-1.4,2.6-1.2,5.7-1.9,8.6-1.9s6,.7,8.6,1.9c.6.3.8.9.5,1.4,0,.3-.3.4-.5.5h.8-.5,0ZM1507.6,999.7c0-1.2.4-2.3,1.1-3h0c.3-.3.7-.6,1.2-.6s.8.3,1.2.6h.6c.7.7,1.1,1.8,1.1,3s-.3,2-.8,2.7h-.6c-.5.6-1.1.9-1.7.9s-1.3-.3-1.7-.9h.6c-.5-.7-.8-1.6-.8-2.7h-.2ZM1491.5,999.7c0-1.2.4-2.3,1.1-3h0c.3-.3.7-.6,1.2-.6s.8.3,1.2.6h.6c.7.7,1.1,1.8,1.1,3s-.3,2-.8,2.7h-.6c-.5.6-1.1.9-1.7.9s-1.3-.3-1.7-.9h.5c-.5-.7-.8-1.6-.8-2.7h0Z"/>
              <path class="st54" d="M1519.4,1001.4h.6c-.4-2-1.1-3.9-2-5.7-.6-1.1-1.2-2.1-1.9-3h-.6c-1.2-1.6-2.7-3.1-4.4-4.3-.6-.4-1.1-.8-1.7-1.1h1.1c-3.2-1.9-6.9-3-10.9-3h-1.1c-4,0-7.7,1.1-10.9,3-.6.3-1.2.7-1.7,1.1h-.6c-1.7,1.2-3.1,2.7-4.4,4.3h.6c-.7,1-1.4,2-1.9,3h.5c-.9,1.8-1.6,3.7-2,5.7h-.5c0,.6-.2,1.2-.3,1.8h-.2c0,.8,0,1.6,0,2.4,0,1.2,0,2.3.3,3.4h0c0,.8.3,1.6.5,2.4h.3c.6,2,1.4,3.9,2.5,5.6h.8c.2.4.5.8.8,1.1h-1.4c1.1,1.6,2.5,3,4,4.2h.3c2,1.6,4.2,2.8,6.6,3.6h.5c2.1.7,4.3,1.1,6.7,1.1s4.6-.4,6.7-1.1h-.5c2.4-.8,4.7-2,6.6-3.6h-.3c1.5-1.2,2.8-2.6,4-4.2h1.4c.3-.4.5-.7.8-1.1h-.8c1.1-1.7,1.9-3.6,2.5-5.6h-.3c.2-.8.4-1.6.5-2.4h0c.2-1.1.3-2.2.3-3.4s0-1.6,0-2.4h.2c0-.6-.2-1.2-.3-1.8h-.2Z"/>
            </g>
            <path class="st55" d="M1520.9,1001.8h.6c-.4-2-1.1-3.9-2-5.7-.6-1.1-1.2-2.1-1.9-3h-.6c-1.2-1.6-2.7-3.1-4.4-4.3-.6-.4-1.1-.8-1.7-1.1h1.1c-3.2-1.9-6.9-3-10.9-3h-1.1c-4,0-7.7,1.1-10.9,3-.6.3-1.2.7-1.7,1.1h-.6c-1.7,1.2-3.1,2.7-4.4,4.3h.6c-.7,1-1.4,2-1.9,3h.5c-.9,1.8-1.6,3.7-2,5.7h-.5c0,.6-.2,1.2-.3,1.8h-.2c0,.8,0,1.6,0,2.4,0,1.2,0,2.3.3,3.4h0c0,.8.3,1.6.5,2.4h.3c.6,2,1.4,3.9,2.5,5.6h.8c.2.4.5.8.8,1.1h-1.4c1.1,1.6,2.5,3,4,4.2h.3c2,1.6,4.2,2.8,6.6,3.6h.5c2.1.7,4.3,1.1,6.7,1.1s4.6-.4,6.7-1.1h-.5c2.4-.8,4.7-2,6.6-3.6h-.3c1.5-1.2,2.8-2.6,4-4.2h1.4c.3-.4.5-.7.8-1.1h-.8c1.1-1.7,1.9-3.6,2.5-5.6h-.3c.2-.8.4-1.6.5-2.4h0c.2-1.1.3-2.2.3-3.4s0-1.6,0-2.4h.2c0-.6-.2-1.2-.3-1.8h-.2ZM1509,1017.4h-1.3c-2.3-1.1-5.1-1.7-7.7-1.7s-5.4.6-7.7,1.7h.8c-.3,0-.6,0-.9,0h-.8c-.2,0-.4-.3-.5-.5-.3-.6,0-1.2.5-1.4,2.6-1.2,5.7-1.9,8.6-1.9s6,.7,8.6,1.9c.6.3.8.9.5,1.4,0,.3-.3.4-.5.5h.8-.5,0ZM1506,999.1c0-1.2.4-2.3,1.1-3h0c.3-.3.7-.6,1.2-.6s.8.3,1.2.6h.6c.7.7,1.1,1.8,1.1,3s-.3,2-.8,2.7h-.6c-.5.6-1.1.9-1.7.9s-1.3-.3-1.7-.9h.6c-.5-.7-.8-1.6-.8-2.7h-.2ZM1490,999.1c0-1.2.4-2.3,1.1-3h0c.3-.3.7-.6,1.2-.6s.8.3,1.2.6h.6c.7.7,1.1,1.8,1.1,3s-.3,2-.8,2.7h-.6c-.5.6-1.1.9-1.7.9s-1.3-.3-1.7-.9h.5c-.5-.7-.8-1.6-.8-2.7h0Z"/>
          </g>
          <g>
            <g>
              <path class="st11" d="M1522.4,985.1h0c-12.2-12.2-32-12.2-44.3,0h0c-12.2,12.2-12.2,32,0,44.3l22.1,22.1,22.1-22.1c12.2-12.2,12.2-32,0-44.3h.1Z"/>
              <path class="st30" d="M1480.8,1028c0,0,.3.3.4.4l19.2,19.2,18.9-18.9c.3-.6.4-1.1.4-1.7,0-2.1-1.6-4.2-3.7-4.5-1.8-.3-3.7.6-5,1.8s-2.3,2.9-3.4,4.4c-1.7,2.4-3.6,4.6-6.2,6.1-2.5,1.5-5.6,2.1-8.4,1.2-3.8-1.3-6.1-5.1-9.5-7.3-.8-.5-1.8-.9-2.8-.8h0Z"/>
              <g class="st59">
                <path class="st38" d="M1500.3,1053.1l-22.9-22.9c-6.1-6.1-9.5-14.3-9.5-22.9s3.4-16.8,9.5-22.9c6.1-6.1,14.3-9.5,22.9-9.5s16.8,3.4,22.9,9.5l-.5.5.5-.5c6.1,6.1,9.5,14.3,9.5,22.9s-3.4,16.8-9.5,22.9l-22.9,22.9ZM1500.3,976.2c-8.3,0-16.1,3.2-21.9,9.1-12.1,12.1-12.1,31.7,0,43.8l21.9,21.9,21.9-21.9c12.1-12.1,12.1-31.7,0-43.8-5.8-5.8-13.6-9.1-21.9-9.1Z"/>
              </g>
              <path class="st10" d="M1527.6,1006.7c0,1.1,0,2.2-.2,3.3-1.3-3.4-3.6-6.4-6.6-8.4-6.1-4-14.7-3.7-20.5.8-3.3,2.5-5.5,6.1-8.3,9.1-2.7,2.9-6.4,5.6-10.6,5.3-3.4-.3-6.5-2.7-7.9-5.9-3.3-7.2,1.3-17.2,6.2-22.7,5.2-5.7,12.7-9,20.4-9,15.2,0,27.5,12.3,27.5,27.5h0Z"/>
            </g>
            <circle class="st8" cx="1474.5" cy="990.3" r="12.6"/>
          </g>
        </g>
        <g>
          <g>
            <g>
              <g>
                <rect class="st54" x="1619.2" y="788.7" width="1.6" height="1.6"/>
                <rect class="st54" x="1615.6" y="787" width="1.6" height="1.6"/>
                <polygon class="st54" points="1617.2 787 1617.2 787 1618.9 787 1618.9 787 1618.9 785.4 1617.2 785.4 1617.2 787"/>
                <rect class="st54" x="1620.9" y="787" width="1.6" height="1.6"/>
                <polygon class="st54" points="1620.5 785.1 1620.5 783.8 1618.9 783.8 1618.9 785.1 1618.9 785.4 1620.5 785.4 1620.5 785.1"/>
                <rect class="st54" x="1641.5" y="788.7" width="1.6" height="1.6"/>
                <rect class="st54" x="1643.1" y="787" width="1.6" height="1.6"/>
                <polygon class="st54" points="1639.4 787 1639.4 787 1641.1 787 1641.1 787 1641.1 785.4 1639.4 785.4 1639.4 787"/>
                <rect class="st54" x="1637.8" y="787" width="1.6" height="1.6"/>
                <polygon class="st54" points="1642.7 785.1 1642.7 783.8 1641.1 783.8 1641.1 785.1 1641.1 785.4 1642.7 785.4 1642.7 785.1"/>
                <path class="st54" d="M1651.3,791.7v-4.7h.3v-2h-.3v-2.6c0-1.5-1.2-2.7-2.7-2.7h-.4c-.2-.4-.4-.7-.6-1.1h.8c-.9-1.5-2-2.8-3.3-4-1.4-1.4-3.1-2.6-4.9-3.5h0c-1.1-.6-2.3-1.1-3.6-1.4h-.8c-1.9-.6-3.8-.8-5.8-.8s-4,.3-5.8.8h.8c-1.2.4-2.5.8-3.6,1.4h0c-1.8.9-3.4,2.1-4.9,3.5-1.2,1.2-2.3,2.5-3.3,4h-.8c-.2.3-.4.7-.6,1.1h-.4c-1.5,0-2.7,1.2-2.7,2.7v2.6h.3v2h-.3v4.7h.6v.6c0,1,.6,1.9,1.4,2.4.2.9.5,1.8.9,2.6h-.6c.2.5.4,1,.6,1.4h.2c.7,1.3,1.5,2.6,2.4,3.8h-.4c1.7,2.1,3.7,3.8,6.1,5.1h.5c3,1.7,6.4,2.6,10,2.6s7.1-.9,10-2.6h-.5c2.3-1.3,4.4-3.1,6.1-5.1h.4c.9-1.1,1.7-2.4,2.4-3.8h-.2c.2-.5.5-.9.6-1.4h.6c.3-.8.6-1.7.9-2.6.8-.5,1.4-1.4,1.4-2.4v-.6h-.8ZM1651.2,792.2c0,.4,0,.8-.4,1.2,0,0,0,0,0,.2h0s0,0-.2.2h0c0,0-.3.2-.4.3h-13c-.4,0-.8,0-1.1-.3l-3.3-2.2h-.3l-.9-.6c-.3-.2-.7-.3-1.1-.3s-.8,0-1.1.3l-.9.6h.3l-3.3,2.2c-.3.2-.7.3-1.1.3h-13c0,0-.3-.2-.4-.3h0s0,0-.2-.2h0s0,0,0-.2c-.2-.3-.4-.7-.4-1.2v-.6h-.6v-4.7h.3v-2h-.3v-2.6c0-1.1.9-2,2-2h37.2c1.1,0,2,.9,2,2v2.6h.3v2h-.3v4.7h.6v.6h-.2Z"/>
              </g>
              <g>
                <rect class="st54" x="1616.5" y="787.7" width="1.6" height="1.6"/>
                <rect class="st54" x="1612.8" y="786.1" width="1.6" height="1.6"/>
                <polygon class="st54" points="1614.5 786.1 1614.5 786.1 1616.1 786.1 1616.1 786.1 1616.1 784.5 1614.5 784.5 1614.5 786.1"/>
                <rect class="st54" x="1618.1" y="786.1" width="1.6" height="1.6"/>
                <polygon class="st54" points="1617.7 784.1 1617.7 782.8 1616.1 782.8 1616.1 784.1 1616.1 784.5 1617.7 784.5 1617.7 784.1"/>
                <rect class="st54" x="1638.7" y="787.7" width="1.6" height="1.6"/>
                <rect class="st54" x="1640.3" y="786.1" width="1.6" height="1.6"/>
                <polygon class="st54" points="1636.7 786.1 1636.7 786.1 1638.3 786.1 1638.3 786.1 1638.3 784.5 1636.7 784.5 1636.7 786.1"/>
                <rect class="st54" x="1635" y="786.1" width="1.6" height="1.6"/>
                <polygon class="st54" points="1639.9 784.1 1639.9 782.8 1638.3 782.8 1638.3 784.1 1638.3 784.5 1639.9 784.5 1639.9 784.1"/>
                <path class="st54" d="M1648.5,790.7v-4.7h.3v-2h-.3v-2.6c0-1.5-1.2-2.7-2.7-2.7h-.4c-.2-.4-.4-.7-.6-1.1h.8c-.9-1.5-2-2.8-3.3-4-1.4-1.4-3.1-2.6-4.9-3.5h0c-1.1-.6-2.3-1.1-3.6-1.4h-.8c-1.9-.6-3.8-.8-5.8-.8s-4,.3-5.8.8h.8c-1.2.4-2.5.8-3.6,1.4h0c-1.8.9-3.4,2.1-4.9,3.5-1.2,1.2-2.3,2.5-3.3,4h-.8c-.2.3-.4.7-.6,1.1h-.4c-1.5,0-2.7,1.2-2.7,2.7v2.6h.3v2h-.3v4.7h.6v.6c0,1,.6,1.9,1.4,2.4.2.9.5,1.8.9,2.6h-.6c.2.5.4,1,.6,1.4h.2c.7,1.3,1.5,2.6,2.4,3.8h-.4c1.7,2.1,3.7,3.8,6.1,5.1h.5c3,1.7,6.4,2.6,10,2.6s7.1-.9,10-2.6h-.5c2.3-1.3,4.4-3.1,6.1-5.1h.4c.9-1.1,1.7-2.4,2.4-3.8h-.2c.2-.5.5-.9.6-1.4h.6c.3-.8.6-1.7.9-2.6.8-.5,1.4-1.4,1.4-2.4v-.6h-.8ZM1633,801.5c-1.9.6-4,.9-6,.9s-4.1-.3-6-.9h.4c-.8-.3-1.6-.6-2.3-.9-.5-.2-.8-.9-.5-1.4.2-.5.9-.8,1.4-.5,2.3,1,4.9,1.6,7.5,1.6s5.2-.6,7.5-1.6c.5-.2,1.2,0,1.4.5.3.5,0,1.2-.5,1.4-.7.3-1.5.6-2.3.9h-.6ZM1648.4,791.3c0,.4,0,.8-.4,1.2,0,0,0,0,0,.2h0s0,0-.2.2h0c0,0-.3.2-.4.3h-13c-.4,0-.8,0-1.1-.3l-3.3-2.2h-.3l-.9-.6c-.3-.2-.7-.3-1.1-.3s-.8,0-1.1.3l-.9.6h.3l-3.3,2.2c-.3.2-.7.3-1.1.3h-13c0,0-.3-.2-.4-.3h0s0,0-.2-.2h0s0,0,0-.2c-.2-.3-.4-.7-.4-1.2v-.6h-.6v-4.7h.3v-2h-.3v-2.6c0-1.1.9-2,2-2h37.2c1.1,0,2,.9,2,2v2.6h.3v2h-.3v4.7h.6v.6h-.2Z"/>
              </g>
            </g>
            <g>
              <rect class="st55" x="1617.7" y="788" width="1.6" height="1.6"/>
              <rect class="st55" x="1614.1" y="786.4" width="1.6" height="1.6"/>
              <polygon class="st55" points="1615.7 786.4 1615.7 786.4 1617.3 786.4 1617.3 786.4 1617.3 784.8 1615.7 784.8 1615.7 786.4"/>
              <rect class="st55" x="1619.4" y="786.4" width="1.6" height="1.6"/>
              <polygon class="st55" points="1617.3 784.4 1617.3 784.8 1619 784.8 1619 784.4 1619 783.2 1617.3 783.2 1617.3 784.4"/>
              <rect class="st55" x="1639.9" y="788" width="1.6" height="1.6"/>
              <rect class="st55" x="1641.5" y="786.4" width="1.6" height="1.6"/>
              <polygon class="st55" points="1637.9 786.4 1637.9 786.4 1639.5 786.4 1639.5 786.4 1639.5 784.8 1637.9 784.8 1637.9 786.4"/>
              <rect class="st55" x="1636.3" y="786.4" width="1.6" height="1.6"/>
              <polygon class="st55" points="1639.5 784.4 1639.5 784.8 1641.2 784.8 1641.2 784.4 1641.2 783.2 1639.5 783.2 1639.5 784.4"/>
              <path class="st55" d="M1649.7,791.1v-4.7h.3v-2h-.3v-2.6c0-1.5-1.2-2.7-2.7-2.7h-.4c-.2-.4-.4-.7-.6-1.1h.8c-.9-1.5-2-2.8-3.3-4-1.4-1.4-3.1-2.6-4.9-3.5h0c-1.1-.6-2.3-1.1-3.6-1.4h-.8c-1.9-.6-3.8-.8-5.8-.8s-4,.3-5.8.8h.8c-1.2.4-2.5.8-3.6,1.4h0c-1.8.9-3.4,2.1-4.9,3.5-1.2,1.2-2.3,2.5-3.3,4h-.8c-.2.3-.4.7-.6,1.1h-.4c-1.5,0-2.7,1.2-2.7,2.7v2.6h.3v2h-.3v4.7h.6v.6c0,1,.6,1.9,1.4,2.4.2.9.5,1.8.9,2.6h-.6c.2.5.4,1,.6,1.4h.2c.7,1.3,1.5,2.6,2.4,3.8h-.4c1.7,2.1,3.7,3.8,6.1,5.1h.5c3,1.7,6.4,2.6,10,2.6s7.1-.9,10-2.6h-.5c2.3-1.3,4.4-3.1,6.1-5.1h.4c.9-1.1,1.7-2.4,2.4-3.8h-.2c.2-.5.5-.9.6-1.4h.6c.3-.8.6-1.7.9-2.6.8-.5,1.4-1.4,1.4-2.4v-.6h-.8ZM1636.9,800.9c-.7.3-1.5.6-2.3.9h-.4c-1.9.6-4,.9-6,.9s-4.1-.3-6-.9h.4c-.8-.3-1.6-.6-2.3-.9-.5-.2-.8-.9-.5-1.4.2-.5.9-.8,1.4-.5,2.3,1,4.9,1.6,7.5,1.6s5.2-.6,7.5-1.6c.5-.2,1.2,0,1.4.5.3.5,0,1.2-.5,1.4h-.2ZM1649.7,791.6c0,.4,0,.8-.4,1.2,0,0,0,0,0,.2h0s0,0-.2.2h0c0,0-.3.2-.4.3h-13c-.4,0-.8,0-1.1-.3l-3.3-2.2h-.3l-.9-.6c-.3-.2-.7-.3-1.1-.3s-.8,0-1.1.3l-.9.6h.3l-3.3,2.2c-.3.2-.7.3-1.1.3h-13c0,0-.3-.2-.4-.3h0s0,0-.2-.2h0s0,0,0-.2c-.2-.3-.4-.7-.4-1.2v-.6h-.6v-4.7h.3v-2h-.3v-2.6c0-1.1.9-2,2-2h37.2c1.1,0,2,.9,2,2v2.6h.3v2h-.3v4.7h.6v.6h-.2Z"/>
            </g>
          </g>
          <g>
            <g>
              <path class="st6" d="M1651.2,768.7h0c-12.2-12.2-32-12.2-44.3,0h0c-12.2,12.2-12.2,32,0,44.3l22.1,22.1,22.1-22.1c12.2-12.2,12.2-32,0-44.3h.1Z"/>
              <path class="st18" d="M1609.6,811.5c0,0,.3.3.4.4l19.2,19.2,18.9-18.9c.3-.6.4-1.1.4-1.7,0-2.1-1.6-4.2-3.7-4.5-1.8-.3-3.7.6-5,1.8s-2.3,2.9-3.4,4.4c-1.7,2.4-3.6,4.6-6.2,6.1-2.5,1.5-5.6,2.1-8.4,1.2-3.8-1.3-6.1-5.1-9.5-7.3-.8-.5-1.8-.9-2.8-.8h0Z"/>
              <g class="st59">
                <path class="st22" d="M1629.1,836.6l-22.9-22.9c-6.1-6.1-9.5-14.3-9.5-22.9s3.4-16.8,9.5-22.9c6.1-6.1,14.3-9.5,22.9-9.5s16.8,3.4,22.9,9.5l-.5.5.5-.5c6.1,6.1,9.5,14.3,9.5,22.9s-3.4,16.8-9.5,22.9l-22.9,22.9ZM1629.1,759.8c-8.3,0-16.1,3.2-21.9,9.1-12.1,12.1-12.1,31.7,0,43.8l21.9,21.9,21.9-21.9c12.1-12.1,12.1-31.7,0-43.8-5.8-5.8-13.6-9.1-21.9-9.1Z"/>
              </g>
              <path class="st39" d="M1656.4,790.2c0,1.1,0,2.2-.2,3.3-1.3-3.4-3.6-6.4-6.6-8.4-6.1-4-14.7-3.7-20.5.8-3.3,2.5-5.5,6.1-8.3,9.1-2.7,2.9-6.4,5.6-10.6,5.3-3.4-.3-6.5-2.7-7.9-5.9-3.3-7.2,1.3-17.2,6.2-22.7,5.2-5.7,12.7-9,20.4-9,15.2,0,27.5,12.3,27.5,27.5h0Z"/>
            </g>
            <circle class="st12" cx="1603.3" cy="773.8" r="12.6"/>
          </g>
        </g>
      </g>
    </g>
  </g>
</svg>