<svg width="139" height="184" viewBox="0 0 139 184" fill="none" xmlns="http://www.w3.org/2000/svg">
<path d="M138.5 66.6C137.5 49.5 130.2 33.5001 117.1 20.5001C104.4 7.80006 87.3999 0.800049 69.3999 0.800049C51.3999 0.800049 34.4998 7.80006 21.6998 20.5001C8.69981 33.5001 1.29991 49.5 0.299909 66.6C-0.200091 75.3 0.999812 84.2 3.69981 93.1C6.49981 102.1 10.9999 111.2 16.9999 120.1C28.7999 137.6 63.4999 180.2 63.7999 180.6C65.1999 182.3 67.1999 183.2 69.2999 183.2H70.9999V183C72.4999 182.6 73.7999 181.8 74.7999 180.6C75.0999 180.2 109.8 137.6 121.7 120.1C127.7 111.2 132.2 102.2 135 93.1C137.8 84.2 138.9 75.2 138.4 66.6H138.5ZM126.1 90.3C123.9 97.3 116.2 111.3 115.6 112.4L112.4 117.2C111.1 118.8 77.3999 162.4 69.4999 172.4C62.3999 163.7 34.7999 129.4 24.9999 114.8C19.4999 106.7 15.4999 98.5 12.8999 90.3C10.4999 82.4 9.39989 74.6 9.89989 67.1C10.6999 52.3 17.1999 38.5001 28.4999 27.2001C39.4999 16.2001 53.9999 10.2001 69.4999 10.2001C84.9999 10.2001 99.4999 16.2001 110.5 27.2001C121.5 38.2001 128.3 52.4 129.1 67.1C129.5 74.6 128.5 82.5 126.1 90.3Z" fill="#EC6628"/>
<path d="M69.4999 26.5C45.5999 26.5 26.0999 46 26.0999 69.9C26.0999 93.8 45.5999 113.3 69.4999 113.3C93.3999 113.3 112.9 93.8 112.9 69.9C112.9 46 93.3999 26.5 69.4999 26.5ZM103.4 69.9C103.4 88.6 88.1999 103.9 69.3999 103.9C50.5999 103.9 35.3999 88.7 35.3999 69.9C35.3999 51.1 50.5999 35.9 69.3999 35.9C88.1999 35.9 103.4 51.1 103.4 69.9Z" fill="#EC6628"/>
</svg>
