<svg width="171" height="171" viewBox="0 0 171 171" fill="none" xmlns="http://www.w3.org/2000/svg">
<path d="M165.7 125.1L138.9 103C133.6 98.5999 125.8 98.8998 120.9 103.8L112.4 112.3C112.3 112.3 112.1 112.5 112 112.3C106.3 109.6 94.6999 103.1 81.1999 89.6999C67.6999 76.1999 61.2999 64.5999 58.5999 58.8999V58.4999L67.0999 49.9999C71.9999 45.0999 72.3999 37.3999 67.9999 31.9999L45.7999 5.19987C41.7999 0.299872 34.7999 -1.10012 29.1999 1.89988L14.9999 9.39988C11.4999 11.2999 8.49988 13.9998 6.29988 17.2998C-9.60012 41.7998 6.79988 88.5999 44.4999 126.3C71.7999 153.7 104.8 170.6 130.6 170.6H133.1C141 170.2 147.9 168.1 153.5 164.5C156.8 162.3 159.5 159.3 161.4 155.8L167.2 144.7L168.9 141.5C171.8 135.9 170.4 129 165.6 124.9V125.1H165.7ZM59.6999 42.4999L51.1999 50.9999C47.8999 54.2999 46.9999 59.2999 48.9999 63.4999C51.8999 69.7999 59.0999 82.6999 73.6999 97.2999C88.2999 111.9 101.1 119.1 107.5 122C111.7 124 116.7 123.1 120 119.8L128.5 111.3C129.5 110.3 131.1 110.2 132.2 111.1L159 133.2C160 134 160.3 135.4 159.7 136.6L152.2 150.8C151.2 152.7 149.7 154.4 147.9 155.5C143.4 158.4 137.6 159.9 130.7 159.9C108.1 159.9 77.2999 143.7 52.1999 118.6C18.5999 84.9998 2.39987 42.8999 15.3999 22.9999C16.4999 21.1999 18.1999 19.7999 20.0999 18.6999L34.2999 11.1999C34.6999 10.9999 35.0999 10.8999 35.5999 10.8999H35.7999C36.5999 10.8999 37.2999 11.2999 37.6999 11.8999L59.8999 38.6999C60.7999 39.7999 60.6999 41.3999 59.6999 42.3999V42.4999Z" fill="#EC6628"/>
</svg>
